<svg width="24" height="24" viewBox="0 0 24 24" fill="none" xmlns="http://www.w3.org/2000/svg">
    <g clip-path="url(#clip0_183_2192)">
        <path d="M8.01188 11.0749L5.78822 10.8536C5.59069 10.8339 5.41069 10.7317 5.29266 10.5721C5.17463 10.4125 5.12949 10.2105 5.16849 10.0158L6.04097 5.66096C6.09352 5.39878 6.29016 5.18911 6.54844 5.11992C6.80677 5.05074 7.08183 5.13399 7.25841 5.33475L10.2753 8.76525C10.4081 8.91619 10.4699 9.11672 10.4451 9.31617C10.4204 9.51563 10.3114 9.69502 10.1458 9.80892L8.47992 10.9546C8.36222 11.0355 8.03508 11.0773 8.01188 11.0749Z" fill="#FFB454"/>
        <path d="M15.2084 11.4088L13.7156 9.67678C13.4865 9.41096 13.4885 9.01692 13.7203 8.75339L16.7267 5.33475C16.9033 5.13399 17.1784 5.05074 17.4367 5.11992C17.695 5.18911 17.8916 5.39878 17.9441 5.66096L18.8192 10.0285C18.8891 10.3776 18.6871 10.7239 18.3488 10.8348C18.3488 10.8348 15.3443 11.5665 15.2084 11.4088Z" fill="#FF8659"/>
        <path d="M20.0462 17.6804H3.95383C3.6356 17.6804 3.35707 17.4667 3.27466 17.1593L0.0239958 5.02773C-0.0588787 4.7185 0.0776673 4.3923 0.356103 4.23429C0.634445 4.07627 0.984553 4.12624 1.20758 4.35593L6.85542 10.1718C7.149 10.4741 7.52222 10.5886 7.93481 10.5027C8.3474 10.4169 8.64402 10.163 8.79266 9.76874L11.3421 3.00528C11.4453 2.73144 11.7074 2.55017 12 2.55017C12.2927 2.55017 12.5547 2.73144 12.658 3.00528L15.2074 9.76874C15.356 10.163 15.6526 10.4168 16.0653 10.5027C16.4779 10.5886 16.8511 10.4741 17.1447 10.1718L22.7924 4.35593C23.0155 4.12624 23.3656 4.07622 23.6439 4.23429C23.9223 4.39235 24.0589 4.7185 23.976 5.02773L20.7253 17.1593C20.6429 17.4667 20.3644 17.6804 20.0462 17.6804Z" fill="#FFD845"/>
        <path d="M23.6439 4.23429C23.3656 4.07622 23.0155 4.12624 22.7924 4.35593L17.1447 10.1718C16.8511 10.4741 16.4779 10.5886 16.0653 10.5027C15.6526 10.4168 15.356 10.163 15.2074 9.76874L12.658 3.00528C12.5547 2.73144 12.2927 2.55017 12 2.55017V17.6805H20.0462C20.3644 17.6805 20.6429 17.4667 20.7253 17.1593L23.976 5.02778C24.0589 4.7185 23.9223 4.3923 23.6439 4.23429Z" fill="#FFB454"/>
        <path d="M19.9922 21.4498H4.00787C3.61956 21.4498 3.30475 21.135 3.30475 20.7467V17.2311H20.6953V20.7467C20.6953 21.135 20.3805 21.4498 19.9922 21.4498Z" fill="#FFB454"/>
        <path d="M11.9532 15.8158C10.79 15.8158 9.84378 14.8695 9.84378 13.7064C9.84378 12.5433 10.79 11.597 11.9532 11.597C13.1163 11.597 14.0625 12.5433 14.0625 13.7064C14.0625 14.8695 13.1163 15.8158 11.9532 15.8158Z" fill="#FF4A4A"/>
        <path fill-rule="evenodd" clip-rule="evenodd" d="M7.20175 15.1125C7.58903 15.1125 7.90488 14.7967 7.90488 14.4094C7.90488 14.0221 7.58903 13.7063 7.20175 13.7063C6.81447 13.7063 6.49863 14.0221 6.49863 14.4094C6.49863 14.7967 6.81452 15.1125 7.20175 15.1125Z" fill="#4793FF"/>
        <path fill-rule="evenodd" clip-rule="evenodd" d="M16.7983 15.1125C17.1856 15.1125 17.5014 14.7967 17.5014 14.4094C17.5014 14.0221 17.1856 13.7063 16.7983 13.7063C16.411 13.7063 16.0952 14.0221 16.0952 14.4094C16.0952 14.7967 16.4111 15.1125 16.7983 15.1125Z" fill="#525CDD"/>
        <path d="M12 11.5981V15.8146C13.1415 15.7894 14.0625 14.8538 14.0625 13.7063C14.0625 12.5589 13.1415 11.6232 12 11.5981Z" fill="#D01273"/>
        <path d="M12 17.2311V21.4498H19.9922C20.3805 21.4498 20.6953 21.135 20.6953 20.7467V17.2311H12Z" fill="#FF8659"/>
    </g>
    <defs>
        <clipPath id="clip0_183_2192">
            <rect width="24" height="24" fill="white"/>
        </clipPath>
    </defs>
</svg>
