<svg width="24" height="24" viewBox="0 0 24 24" fill="none" xmlns="http://www.w3.org/2000/svg">
    <path d="M11.8581 22.7704C11.6989 22.7414 11.5471 22.6633 11.4273 22.5356C11.4258 22.5341 11.4243 22.5326 11.4229 22.5312L0.208695 10.4048C0.207711 10.4038 0.206727 10.4028 0.206258 10.4018C0.0898203 10.2751 0.0220391 10.1179 0.00488281 9.95581H7.13715L11.8581 22.7704Z" fill="#90D8F9"/>
    <path d="M23.9953 9.95586C23.9781 10.118 23.9103 10.2751 23.7939 10.4019C23.7934 10.4029 23.7924 10.4038 23.7915 10.4048L12.5773 22.5311C12.5758 22.5326 12.5743 22.5341 12.5729 22.5355C12.453 22.6632 12.3012 22.7413 12.1421 22.7703L16.8631 9.95581H23.9953V9.95586Z" fill="#5EA5EC"/>
    <path d="M16.863 9.95581L12.1421 22.7703H12.1416C12.0483 22.7875 11.952 22.7875 11.8586 22.7703H11.8582L7.13721 9.95581H16.863Z" fill="#75CEF9"/>
    <path d="M7.13709 9.95585H0.00482494C-0.0148157 9.78049 0.0254499 9.59974 0.126653 9.44351L3.23301 4.65724C3.234 4.65579 3.23498 4.6548 3.23597 4.6533C3.30965 4.5408 3.40936 4.45141 3.52481 4.39099L7.13709 9.95585Z" fill="#E4F6FF"/>
    <path d="M11.9999 4.29962L7.13699 9.95584L3.52466 4.39098C3.63617 4.33154 3.76189 4.29962 3.89206 4.29962H11.9999Z" fill="#D3EFFB"/>
    <path d="M23.9951 9.9558H16.8628L20.4751 4.39099C20.5906 4.45141 20.6903 4.5408 20.764 4.6533C20.7649 4.65476 20.7659 4.65574 20.7669 4.65724L23.8733 9.44351C23.9744 9.59965 24.0147 9.78044 23.9951 9.9558Z" fill="#6BBEF6"/>
    <path d="M20.4752 4.39098L16.8629 9.95579L12 4.29962H20.1078C20.238 4.29962 20.3637 4.33154 20.4752 4.39098Z" fill="#90D8F9"/>
    <path d="M11.9999 4.29938L7.13721 9.95602H16.8626L11.9999 4.29938Z" fill="#B1E4F9"/>
    <path d="M4.51696 14.3224C4.68322 14.2201 4.68322 13.9784 4.51696 13.8761C4.15405 13.6527 3.87261 13.3185 3.71436 12.9229L3.6343 12.7227C3.54646 12.5031 3.23558 12.5031 3.14774 12.7227L3.06767 12.9229C2.90942 13.3186 2.62799 13.6528 2.26508 13.8761C2.09881 13.9784 2.09881 14.2201 2.26508 14.3224C2.62799 14.5458 2.90942 14.88 3.06767 15.2756L3.14774 15.4758C3.23558 15.6954 3.54646 15.6954 3.6343 15.4758L3.71436 15.2756C3.87266 14.88 4.15405 14.5458 4.51696 14.3224Z" fill="#FFE07D"/>
    <path d="M17.2748 16.5305C17.1086 16.4281 17.1086 16.1865 17.2748 16.0842C17.6378 15.8608 17.9192 15.5266 18.0774 15.131L18.1575 14.9308C18.2453 14.7111 18.5562 14.7111 18.6441 14.9308L18.7241 15.131C18.8824 15.5266 19.1638 15.8609 19.5267 16.0842C19.693 16.1865 19.693 16.4281 19.5267 16.5305C19.1638 16.7538 18.8824 17.088 18.7241 17.4837L18.6441 17.6839C18.5562 17.9035 18.2453 17.9035 18.1575 17.6839L18.0774 17.4837C17.9192 17.088 17.6378 16.7538 17.2748 16.5305Z" fill="#FFE07D"/>
    <path d="M8.26329 4.52259C8.42956 4.42026 8.42956 4.17862 8.26329 4.07629C7.90039 3.85293 7.61895 3.51871 7.4607 3.12309L7.38064 2.92289C7.29279 2.70328 6.98192 2.70328 6.89407 2.92289L6.81401 3.12309C6.65576 3.51876 6.37432 3.85298 6.01142 4.07629C5.84515 4.17862 5.84515 4.42026 6.01142 4.52259C6.37432 4.74595 6.65576 5.08017 6.81401 5.47579L6.89407 5.67599C6.98192 5.8956 7.29279 5.8956 7.38064 5.67599L7.4607 5.47579C7.61895 5.08012 7.90034 4.7459 8.26329 4.52259Z" fill="#FFE07D"/>
    <path d="M18.336 2.98127C18.5023 2.87894 18.5023 2.6373 18.336 2.53497C17.9731 2.31161 17.6917 1.97739 17.5335 1.58177L17.4534 1.38156C17.3655 1.16196 17.0547 1.16196 16.9668 1.38156L16.8868 1.58177C16.7285 1.97744 16.4471 2.31166 16.0842 2.53497C15.9179 2.6373 15.9179 2.87894 16.0842 2.98127C16.4471 3.20463 16.7285 3.53885 16.8868 3.93447L16.9668 4.13467C17.0547 4.35428 17.3655 4.35428 17.4534 4.13467L17.5335 3.93447C17.6917 3.53885 17.9731 3.20463 18.336 2.98127Z" fill="#FFE07D"/>
</svg>
