<svg width="24" height="24" viewBox="0 0 24 24" fill="none" xmlns="http://www.w3.org/2000/svg">
    <path d="M11.6933 2.83807C8.36613 2.99121 5.66636 5.69303 5.51552 9.02032C5.41802 11.1713 6.36804 13.1043 7.89841 14.3533C8.51177 14.8539 8.88129 15.5929 8.88129 16.3847V17.8809H15.1189V16.3839C15.1189 15.6044 15.4686 14.8646 16.0751 14.375C17.5488 13.1851 18.4915 11.364 18.4915 9.32242C18.4915 5.63557 15.4179 2.6666 11.6933 2.83807Z" fill="#FEE55A"/>
    <path d="M9.7061 14.3533C8.17573 13.1043 7.22571 11.1713 7.32321 9.02033C7.46496 5.89442 9.85643 3.32075 12.9043 2.89362C12.5108 2.83878 12.1061 2.81904 11.6933 2.83803C8.36614 2.99117 5.66637 5.693 5.51553 9.02028C5.41798 11.1712 6.36804 13.1043 7.89842 14.3532C8.51178 14.8539 8.88129 15.5929 8.88129 16.3846V17.8809H10.689V16.3846C10.689 15.593 10.3195 14.8539 9.7061 14.3533Z" fill="#FFD301"/>
    <path d="M20.9657 9.67923H19.7286C19.5315 9.67923 19.3718 9.51948 19.3718 9.32246C19.3718 9.1254 19.5316 8.9657 19.7286 8.9657H20.9657C21.1627 8.9657 21.3224 9.12545 21.3224 9.32246C21.3224 9.51948 21.1627 9.67923 20.9657 9.67923Z" fill="#FEE55A"/>
    <path d="M4.2715 9.67923H3.03438C2.83732 9.67923 2.67761 9.51948 2.67761 9.32246C2.67761 9.1254 2.83736 8.9657 3.03438 8.9657H4.27146C4.46852 8.9657 4.62822 9.12545 4.62822 9.32246C4.62827 9.51948 4.46852 9.67923 4.2715 9.67923Z" fill="#FEE55A"/>
    <path d="M17.2127 4.1098C17.0733 3.97049 17.0733 3.74455 17.2127 3.60524L18.0875 2.73046C18.2268 2.59115 18.4527 2.59115 18.592 2.73046C18.7314 2.86977 18.7314 3.09571 18.592 3.23502L17.7172 4.1098C17.5779 4.24916 17.352 4.24912 17.2127 4.1098Z" fill="#FEE55A"/>
    <path d="M5.40811 15.9144C5.26875 15.7751 5.26875 15.5492 5.40811 15.4098L6.28289 14.535C6.4222 14.3957 6.64814 14.3957 6.78745 14.535C6.92681 14.6743 6.92681 14.9002 6.78745 15.0396L5.91267 15.9144C5.77331 16.0537 5.54742 16.0537 5.40811 15.9144Z" fill="#FEE55A"/>
    <path d="M12.0001 1.95066C11.803 1.95066 11.6433 1.79091 11.6433 1.59389V0.356766C11.6433 0.15975 11.8031 0 12.0001 0C12.1971 0 12.3568 0.15975 12.3568 0.356766V1.59384C12.3569 1.79095 12.1971 1.95066 12.0001 1.95066Z" fill="#FEE55A"/>
    <path d="M6.28277 4.1098L5.40799 3.23502C5.26863 3.09571 5.26863 2.86977 5.40799 2.73046C5.5473 2.59115 5.77324 2.59115 5.91255 2.73046L6.78733 3.60524C6.92669 3.74455 6.92669 3.97049 6.78733 4.1098C6.64802 4.24916 6.42213 4.24912 6.28277 4.1098Z" fill="#FEE55A"/>
    <path d="M18.0875 15.9144L17.2127 15.0396C17.0733 14.9003 17.0733 14.6744 17.2127 14.5351C17.352 14.3957 17.5779 14.3957 17.7172 14.5351L18.592 15.4098C18.7314 15.5492 18.7314 15.7751 18.592 15.9144C18.4527 16.0537 18.2268 16.0538 18.0875 15.9144Z" fill="#FEE55A"/>
    <path d="M12.1066 12.6079C11.9988 12.443 12.0452 12.2219 12.2102 12.1141L13.0903 11.5392C13.0946 11.5365 13.0988 11.5338 13.1032 11.5312C13.1919 11.4786 13.247 11.3818 13.247 11.2787V9.68092C13.247 9.48386 13.4067 9.32416 13.6037 9.32416C13.8007 9.32416 13.9605 9.48391 13.9605 9.68092V11.2787C13.9605 11.6295 13.7747 11.9588 13.4749 12.1404L12.6004 12.7116C12.4354 12.8193 12.2143 12.7729 12.1066 12.6079Z" fill="#FFC20C"/>
    <path d="M11.4656 12.717L10.5299 12.1433C10.2273 11.9624 10.0394 11.6313 10.0394 11.2787V9.68092C10.0394 9.48386 10.1992 9.32416 10.3962 9.32416C10.5933 9.32416 10.753 9.48391 10.753 9.68092V11.2787C10.753 11.3818 10.808 11.4786 10.8967 11.5312C10.8982 11.5321 10.8996 11.533 10.901 11.5338L11.8385 12.1087C12.0065 12.2117 12.0592 12.4314 11.9561 12.5993C11.8532 12.7675 11.6334 12.82 11.4656 12.717Z" fill="#FFC20C"/>
    <path d="M14.1265 10.6414H9.86055C9.66349 10.6414 9.50378 10.4817 9.50378 10.2847C9.50378 10.0876 9.66353 9.92792 9.86055 9.92792H14.1265C14.3236 9.92792 14.4833 10.0877 14.4833 10.2847C14.4833 10.4817 14.3236 10.6414 14.1265 10.6414Z" fill="#FFC20C"/>
    <path d="M12.9849 14.6916C12.8324 14.6043 12.7404 14.4402 12.7404 14.2645V12.4653C12.7404 12.212 12.5351 12.0067 12.2818 12.0067H11.7184C11.465 12.0067 11.2597 12.2121 11.2597 12.4653V14.2645C11.2597 14.4402 11.1677 14.6043 11.0153 14.6916C10.7485 14.8443 10.5686 15.1314 10.5686 15.4609V17.8809H13.4316V15.4609C13.4315 15.1314 13.2517 14.8443 12.9849 14.6916Z" fill="#FFD301"/>
    <path d="M12.5039 14.6916C12.6385 14.6145 12.7257 14.4775 12.7444 14.3256C12.7419 14.3055 12.7404 14.2851 12.7404 14.2645V12.4653C12.7404 12.212 12.5351 12.0067 12.2818 12.0067H11.7184C11.465 12.0067 11.2597 12.212 11.2597 12.4653V14.2645C11.2597 14.4401 11.1677 14.6043 11.0153 14.6915C10.7485 14.8442 10.5686 15.1313 10.5686 15.4609V17.8809H12.0573V15.4609C12.0573 15.1314 12.2371 14.8443 12.5039 14.6916Z" fill="#FFC20C"/>
    <path d="M12.0001 18.2377C11.803 18.2377 11.6433 18.078 11.6433 17.881V15.7579C11.6433 15.5608 11.8031 15.4011 12.0001 15.4011C12.1971 15.4011 12.3568 15.5609 12.3568 15.7579V17.881C12.3569 18.078 12.1971 18.2377 12.0001 18.2377Z" fill="#FEE55A"/>
    <path d="M9.78516 22.1328C9.98916 23.17 10.9031 24 12 24C13.097 24 14.0109 23.17 14.2149 22.1328L9.78516 22.1328Z" fill="#23A8FE"/>
    <path d="M11.5295 22.1328H9.78516C9.98916 23.17 10.9031 24 12 24C12.3092 24 12.6039 23.934 12.8722 23.8161C12.1886 23.5156 11.676 22.8776 11.5295 22.1328Z" fill="#0193FA"/>
    <path d="M14.3763 20.652H9.62379C9.37047 20.652 9.16516 20.8574 9.16516 21.1107V21.7217C9.16516 21.975 9.37052 22.1803 9.62379 22.1803H14.3763C14.6296 22.1803 14.8349 21.9749 14.8349 21.7217V21.1107C14.835 20.8574 14.6296 20.652 14.3763 20.652Z" fill="#60B8FE"/>
    <path d="M10.9095 21.7217V21.1107C10.9095 20.8574 11.1148 20.652 11.3681 20.652H9.62379C9.37047 20.652 9.16516 20.8574 9.16516 21.1107V21.7217C9.16516 21.975 9.37052 22.1803 9.62379 22.1803H11.3681C11.1148 22.1803 10.9095 21.975 10.9095 21.7217Z" fill="#23A8FE"/>
    <path d="M15.3566 19.1714H8.64344C8.39013 19.1714 8.18481 19.3767 8.18481 19.63V20.241C8.18481 20.4943 8.39017 20.6997 8.64344 20.6997H15.3566C15.6099 20.6997 15.8152 20.4943 15.8152 20.241V19.63C15.8152 19.3767 15.6099 19.1714 15.3566 19.1714Z" fill="#B1DBFC"/>
    <path d="M9.92913 20.241V19.63C9.92913 19.3767 10.1345 19.1714 10.3878 19.1714H8.64344C8.39013 19.1714 8.18481 19.3767 8.18481 19.63V20.241C8.18481 20.4943 8.39017 20.6997 8.64344 20.6997H10.3878C10.1344 20.6997 9.92913 20.4943 9.92913 20.241Z" fill="#8BCAFF"/>
    <path d="M15.3566 17.7382H8.64344C8.39013 17.7382 8.18481 17.9436 8.18481 18.1968V18.7603C8.18481 19.0136 8.39017 19.2189 8.64344 19.2189H15.3565C15.6099 19.2189 15.8152 19.0135 15.8152 18.7603V18.1968C15.8152 17.9436 15.6099 17.7382 15.3566 17.7382Z" fill="#DFEBFA"/>
    <path d="M9.92913 18.7602V18.1968C9.92913 17.9435 10.1345 17.7382 10.3878 17.7382H8.64344C8.39013 17.7382 8.18481 17.9436 8.18481 18.1968V18.7603C8.18481 19.0136 8.39017 19.2189 8.64344 19.2189H10.3878C10.1344 19.2189 9.92913 19.0135 9.92913 18.7602Z" fill="#B1DBFC"/>
</svg>
