<svg width="24" height="24" viewBox="0 0 24 24" fill="none" xmlns="http://www.w3.org/2000/svg">
    <g clip-path="url(#clip0_143_606)">
        <path d="M1.33692 24H0.703125C0.314812 24 0 23.6852 0 23.2969V22.6631C0 20.9668 0.433078 19.2848 1.25236 17.7989C2.06873 16.3184 3.255 15.0563 4.68295 14.1492C4.96092 13.9726 5.3243 14.0126 5.55713 14.2456L9.75441 18.4429C9.98728 18.6758 10.0273 19.0391 9.85073 19.3171C8.94361 20.745 7.68155 21.9313 6.201 22.7476C4.71511 23.567 3.03314 24 1.33692 24Z" fill="#FFE137"/>
        <path d="M0.703014 24H1.33681C3.03303 24 4.715 23.567 6.20094 22.7476C7.68148 21.9313 8.94354 20.745 9.85067 19.317C10.0273 19.039 9.98726 18.6757 9.75434 18.4429L7.6557 16.3442L0.205811 23.794C0.333076 23.9213 0.508857 24 0.703014 24Z" fill="#FFC808"/>
        <path d="M15.1139 22.8477C15.0765 22.8477 15.0388 22.8447 15.0013 22.8386C14.7782 22.8024 14.5861 22.6611 14.485 22.459L12.418 18.3252C12.2657 18.0204 12.3537 17.6503 12.627 17.4468L18.736 12.898C18.9414 12.745 19.2137 12.7159 19.4468 12.8218C19.68 12.9277 19.837 13.152 19.857 13.4073C20.0862 16.3483 19.0219 19.2309 16.9368 21.3159L15.611 22.6417C15.4781 22.7746 15.2988 22.8477 15.1139 22.8477Z" fill="#FB4021"/>
        <path d="M5.98894 11.6564C5.88268 11.6564 5.77524 11.6323 5.67483 11.5821L1.54102 9.51511C1.33885 9.41405 1.19761 9.22195 1.16143 8.99883C1.12524 8.77575 1.19846 8.54883 1.3583 8.38903L2.68416 7.06322C4.76916 4.97817 7.65197 3.91411 10.5928 4.14309C10.8481 4.16301 11.0723 4.32009 11.1783 4.55325C11.2842 4.7864 11.255 5.05865 11.1021 5.26401L6.55327 11.373C6.41682 11.5564 6.20536 11.6564 5.98894 11.6564Z" fill="#FF6641"/>
        <path d="M23.1408 7.70998C21.3465 7.61229 19.6628 6.863 18.3999 5.60009C17.137 4.33719 16.3877 2.65348 16.29 0.859202L16.2772 0.625061C13.9543 1.32097 11.8031 2.58453 10.0385 4.34914L10.0037 4.38401C7.27469 7.11298 5.20385 10.3289 3.84874 13.9426C3.75194 14.2008 3.81494 14.4917 4.00989 14.6867L9.31319 19.99C9.44744 20.1243 9.62725 20.1959 9.81049 20.1959C9.89331 20.1959 9.97689 20.1813 10.0572 20.1512C13.6709 18.7961 16.8868 16.7253 19.6158 13.9962L19.6508 13.9612C21.4153 12.1967 22.6788 10.0456 23.3747 7.72273L23.1408 7.70998Z" fill="#E6F3FF"/>
        <path d="M9.31329 19.99C9.44754 20.1243 9.62735 20.196 9.81059 20.196C9.89342 20.196 9.977 20.1813 10.0573 20.1512C13.671 18.7961 16.8869 16.7253 19.6159 13.9963L19.651 13.9613C21.4155 12.1968 22.6789 10.0456 23.3749 7.7228L23.1408 7.71005C21.3465 7.61236 19.6628 6.86306 18.3999 5.60016L6.66162 17.3384L9.31329 19.99Z" fill="#D2DCF0"/>
        <path d="M23.7606 0.805506C23.7082 0.517413 23.4827 0.291897 23.1946 0.239538C20.6847 -0.216884 18.1406 -0.0125561 15.7915 0.779959L15.8214 1.32798C15.9191 3.12221 16.6683 4.80591 17.9313 6.06887C19.1942 7.33173 20.8779 8.08107 22.6721 8.17876L23.2202 8.20862C24.0126 5.85962 24.2169 3.31548 23.7606 0.805506Z" fill="#FF6641"/>
        <path d="M17.9312 6.06883C19.1941 7.33169 20.8778 8.08103 22.672 8.17872L23.2201 8.20858C24.0126 5.85958 24.2169 3.31549 23.7605 0.805473C23.7343 0.661426 23.6649 0.532988 23.5659 0.434082L17.9312 6.06883Z" fill="#FB4021"/>
        <path d="M14.7823 12.2646C13.9684 12.2646 13.2032 11.9477 12.6278 11.3722C12.0523 10.7967 11.7354 10.0316 11.7354 9.21771C11.7354 8.40387 12.0523 7.63868 12.6278 7.06324C13.2032 6.48776 13.9684 6.17084 14.7823 6.17084C15.5961 6.17084 16.3613 6.48776 16.9367 7.06324C17.5122 7.63868 17.8291 8.40387 17.8291 9.21771C17.8291 10.0316 17.5122 10.7967 16.9367 11.3722C16.3613 11.9477 15.5961 12.2646 14.7823 12.2646Z" fill="#FF6641"/>
        <path d="M5.17014 19.5331C4.99019 19.5331 4.81024 19.4644 4.67299 19.3271C4.39839 19.0526 4.39839 18.6074 4.67299 18.3328L10.6391 12.3666C10.9137 12.092 11.3589 12.092 11.6335 12.3666C11.9081 12.6411 11.9081 13.0863 11.6335 13.3609L5.6673 19.3271C5.53 19.4644 5.35005 19.5331 5.17014 19.5331Z" fill="#FF6641"/>
        <path d="M12.6279 11.3722C13.2034 11.9477 13.9686 12.2646 14.7824 12.2646C15.5962 12.2646 16.3614 11.9477 16.9369 11.3722C17.5124 10.7967 17.8293 10.0315 17.8293 9.2177C17.8293 8.40386 17.5124 7.63867 16.9369 7.06323L12.6279 11.3722Z" fill="#FB4021"/>
        <path d="M4.67285 19.3271C4.81015 19.4644 4.9901 19.5331 5.17001 19.5331C5.34991 19.5331 5.52991 19.4644 5.66716 19.3271L11.6334 13.3609C11.908 13.0864 11.908 12.6412 11.6334 12.3666H11.6333L4.67285 19.3271Z" fill="#FB4021"/>
        <path d="M14.7823 10.8583C14.344 10.8583 13.9321 10.6877 13.6222 10.3778C13.3123 10.068 13.1416 9.65595 13.1416 9.21771C13.1416 8.77948 13.3123 8.36749 13.6222 8.0576C13.932 7.74771 14.344 7.57709 14.7823 7.57709C15.2205 7.57709 15.6325 7.74771 15.9424 8.0576C16.2523 8.36745 16.4229 8.77948 16.4229 9.21771C16.4229 9.65595 16.2523 10.0679 15.9424 10.3778C15.6325 10.6877 15.2205 10.8583 14.7823 10.8583Z" fill="#84D6FF"/>
        <path d="M13.6223 10.3778C13.9322 10.6877 14.3442 10.8583 14.7824 10.8583C15.2207 10.8583 15.6326 10.6877 15.9425 10.3778C16.2524 10.0679 16.423 9.6559 16.423 9.21767C16.423 8.77943 16.2524 8.36745 15.9425 8.05756L13.6223 10.3778Z" fill="#37C3FF"/>
    </g>
    <defs>
        <clipPath id="clip0_143_606">
            <rect width="24" height="24" fill="white"/>
        </clipPath>
    </defs>
</svg>
