<svg width="24" height="24" viewBox="0 0 24 24" fill="none" xmlns="http://www.w3.org/2000/svg">
    <g clip-path="url(#clip0_143_569)">
        <path d="M20.9666 12C20.9666 11.6469 20.9459 11.2986 20.9061 10.9562C20.8548 10.516 21.0292 10.0794 21.3624 9.78706L22.7342 8.58358C23.1998 8.17511 23.3044 7.49111 22.9823 6.96212L21.5151 4.55341C21.1929 4.02442 20.5371 3.80358 19.9606 4.02988L18.2506 4.70104C17.8367 4.86348 17.3715 4.80659 17.0028 4.55816C16.6067 4.29129 16.1881 4.05525 15.7504 3.85341C15.3477 3.66767 15.0585 3.30028 14.9821 2.86344L14.666 1.05534C14.5593 0.445177 14.0296 0 13.4102 0H10.5899C9.9705 0 9.44076 0.445176 9.33412 1.05529L9.01803 2.86339C8.94165 3.30024 8.65247 3.66767 8.24974 3.85336C7.8121 4.0552 7.39346 4.29125 6.99732 4.55812C6.62857 4.80649 6.16339 4.86339 5.74956 4.70099L4.03949 4.02984C3.46292 3.80358 2.80716 4.02442 2.48499 4.55336L1.01789 6.96207C0.69572 7.49106 0.800332 8.17506 1.26593 8.58353L2.6377 9.78701C2.97092 10.0793 3.14537 10.5159 3.09407 10.9562C3.05417 11.2986 3.03356 11.6469 3.03356 12C3.03356 12.353 3.05421 12.7013 3.09407 13.0437C3.14537 13.484 2.97092 13.9206 2.6377 14.2129L1.26593 15.4164C0.800332 15.8248 0.69572 16.5088 1.01789 17.0378L2.48499 19.4465C2.80716 19.9755 3.46297 20.1964 4.03949 19.9701L5.74951 19.2989C6.16339 19.1365 6.62857 19.1934 6.99727 19.4418C7.39341 19.7087 7.81205 19.9447 8.2497 20.1465C8.65243 20.3323 8.9416 20.6997 9.01798 21.1365L9.33407 22.9446C9.44076 23.5548 9.9705 23.8118 10.5899 23.8118H13.4102C14.0296 23.8118 14.5593 23.5548 14.666 22.9447L14.9821 21.1366C15.0585 20.6998 15.3476 20.3323 15.7504 20.1466C16.188 19.9448 16.6066 19.7088 17.0028 19.4419C17.3715 19.1935 17.8367 19.1366 18.2505 19.299L19.9606 19.9702C20.5371 20.1965 21.1929 19.9756 21.5151 19.4466L22.9822 17.0379C23.3043 16.5089 23.1997 15.8249 22.7341 15.4165L21.3624 14.213C21.0291 13.9207 20.8547 13.4841 20.906 13.0438C20.946 12.7014 20.9666 12.3531 20.9666 12Z" fill="url(#paint0_linear_143_569)"/>
        <path d="M12.0001 19.3295C16.0481 19.3295 19.3296 16.0479 19.3296 12C19.3296 7.95204 16.0481 4.67053 12.0001 4.67053C7.95217 4.67053 4.67065 7.95204 4.67065 12C4.67065 16.0479 7.95217 19.3295 12.0001 19.3295Z" fill="url(#paint1_linear_143_569)"/>
        <path d="M13.4103 24C14.0297 24 14.5595 23.5548 14.6661 22.9447L14.9822 21.1366C15.0586 20.6998 15.3477 20.3323 15.7505 20.1466C16.1881 19.9448 16.6067 19.7088 17.0029 19.4419C17.3716 19.1935 17.8368 19.1366 18.2507 19.299L19.9607 19.9702C20.5372 20.1965 21.193 19.9756 21.5152 19.4466L22.9823 17.0379C23.3044 16.5089 23.1998 15.8249 22.7342 15.4165L21.3625 14.213C21.0292 13.9207 20.8548 13.4841 20.9061 13.0438C20.93 12.8385 20.9461 12.6309 20.9559 12.4217L16.4383 7.9041C16.1572 7.59972 15.8453 7.32419 15.5074 7.08278C15.2345 6.88782 14.8551 7.08532 14.8551 7.42071V11.4072C14.8551 11.8192 14.6679 12.204 14.3542 12.4593C14.295 12.4025 9.09456 7.21102 9.05122 7.15859C8.92115 7.00132 8.67978 7.0432 8.48957 7.17925C6.95545 8.27681 6.05107 9.98052 6.0547 12.0112C6.0578 13.7594 6.70698 15.3305 7.89343 16.4305L9.19225 17.7339L9.23931 20.7667C9.23931 21.4969 9.20839 22.2256 9.33413 22.9449C9.44086 23.5548 9.9706 24 10.59 24H13.4103Z" fill="url(#paint2_linear_143_569)"/>
        <path d="M22.9823 17.0377L21.5154 19.4466C21.1931 19.9755 20.5371 20.1962 19.9606 19.9704L18.2505 19.2988C17.8368 19.1365 17.3714 19.1934 17.003 19.4419C16.6067 19.7087 16.1879 19.9449 15.7503 20.1468C15.3479 20.3322 15.0585 20.6998 14.9823 21.1365L14.666 22.9449C14.5592 23.5548 14.0298 23.8588 13.4105 23.8588H10.5898C10.2801 23.8588 9.99308 23.7478 9.77002 23.56C9.65614 23.4645 9.5592 23.4904 9.48438 23.36C9.67214 23.4682 9.88955 23.5294 10.1192 23.5294H12.9399C13.5592 23.5294 14.0886 23.0842 14.1954 22.4744C14.258 22.1148 14.3056 21.7525 14.3371 21.3892C14.3686 21.0259 14.3846 20.6607 14.3846 20.296V16.8527C16.2801 15.8339 17.5691 13.832 17.5691 11.5294C17.5691 9.98353 16.9884 8.57318 16.0326 7.50494C16.1743 7.63106 16.3093 7.76424 16.4383 7.904L20.9559 12.4217C20.946 12.6311 20.93 12.8386 20.906 13.0438C20.8547 13.4842 21.0293 13.9205 21.3625 14.2132L22.7343 15.4165C23.1997 15.8249 23.3046 16.5087 22.9823 17.0377Z" fill="url(#paint3_linear_143_569)"/>
        <path d="M14.6659 22.9447C14.7916 22.2255 14.8548 21.4967 14.8548 20.7666V15.7804H9.14502V20.7666C9.14502 21.4967 9.20822 22.2255 9.33396 22.9447C9.44064 23.5548 9.97038 24 10.5898 24H13.4101C14.0295 24 14.5592 23.5548 14.6659 22.9447Z" fill="url(#paint4_linear_143_569)"/>
        <path d="M9.14502 17.3251L14.6798 22.8598C14.7958 22.1682 14.8548 21.468 14.8548 20.7666V15.7804H9.14502V17.3251Z" fill="url(#paint5_linear_143_569)"/>
        <path d="M18.0395 12C18.0395 15.3355 15.3356 18.0395 12 18.0395C8.66451 18.0396 5.96639 15.3466 5.96046 12.011C5.95684 9.98039 6.95533 8.18255 8.48945 7.085C8.76361 6.88886 9.14488 7.08368 9.14488 7.42076V11.4071C9.14488 11.8919 9.40352 12.3399 9.82338 12.5824L11.3214 13.4473C11.7413 13.6898 12.2586 13.6898 12.6785 13.4473L14.1766 12.5824C14.5964 12.34 14.855 11.892 14.855 11.4071V7.42062C14.855 7.08528 15.2344 6.88777 15.5073 7.08269C17.0405 8.17808 18.0395 9.97248 18.0395 12Z" fill="url(#paint6_linear_143_569)"/>
        <path d="M7.53056 12.5087C7.53056 13.2677 7.93546 13.969 8.59273 14.3485L10.9378 15.7025C11.5951 16.082 12.405 16.082 13.0623 15.7025L15.4074 14.3485C16.0647 13.969 16.4696 13.2677 16.4696 12.5087V7.93881C16.1804 7.62074 15.858 7.33326 15.5074 7.08272C15.2345 6.88776 14.8551 7.08526 14.8551 7.42065V11.4071C14.8551 11.8919 14.5965 12.3399 14.1766 12.5824L12.6786 13.4473C12.2587 13.6898 11.7414 13.6898 11.3215 13.4473L9.82346 12.5824C9.4036 12.34 9.14496 11.892 9.14496 11.4071V7.42079C9.14496 7.08366 8.76369 6.88889 8.48953 7.08503C8.14012 7.335 7.81885 7.62169 7.53052 7.93877L7.53056 12.5087Z" fill="url(#paint7_linear_143_569)"/>
    </g>
    <defs>
        <linearGradient id="paint0_linear_143_569" x1="5.94838" y1="5.94833" x2="18.6121" y2="18.612" gradientUnits="userSpaceOnUse">
            <stop stop-color="#7FAEF4"/>
            <stop offset="1" stop-color="#4C8DF1"/>
        </linearGradient>
        <linearGradient id="paint1_linear_143_569" x1="20.2728" y1="20.2727" x2="3.06515" y2="3.06503" gradientUnits="userSpaceOnUse">
            <stop stop-color="#7FAEF4"/>
            <stop offset="1" stop-color="#4C8DF1"/>
        </linearGradient>
        <linearGradient id="paint2_linear_143_569" x1="13.0582" y1="15.6175" x2="4.75823" y2="11.491" gradientUnits="userSpaceOnUse">
            <stop stop-color="#4C8DF1" stop-opacity="0"/>
            <stop offset="0.5631" stop-color="#466CC8" stop-opacity="0.563"/>
            <stop offset="1" stop-color="#4256AC"/>
        </linearGradient>
        <linearGradient id="paint3_linear_143_569" x1="19.7036" y1="18.8351" x2="13.0683" y2="15.6351" gradientUnits="userSpaceOnUse">
            <stop stop-color="#4C8DF1" stop-opacity="0"/>
            <stop offset="0.5631" stop-color="#466CC8" stop-opacity="0.563"/>
            <stop offset="1" stop-color="#4256AC"/>
        </linearGradient>
        <linearGradient id="paint4_linear_143_569" x1="11.7899" y1="19.2219" x2="15.3913" y2="22.8233" gradientUnits="userSpaceOnUse">
            <stop stop-color="#E3E5E4"/>
            <stop offset="1" stop-color="#CBD0E4"/>
        </linearGradient>
        <linearGradient id="paint5_linear_143_569" x1="13.7531" y1="20.5204" x2="11.3688" y2="15.1243" gradientUnits="userSpaceOnUse">
            <stop stop-color="#CBD0E4" stop-opacity="0"/>
            <stop offset="1" stop-color="#6A7D83"/>
        </linearGradient>
        <linearGradient id="paint6_linear_143_569" x1="9.78742" y1="9.78905" x2="17.6738" y2="17.6754" gradientUnits="userSpaceOnUse">
            <stop stop-color="#E3E5E4"/>
            <stop offset="1" stop-color="#CBD0E4"/>
        </linearGradient>
        <linearGradient id="paint7_linear_143_569" x1="15.353" y1="14.0118" x2="6.41169" y2="5.07049" gradientUnits="userSpaceOnUse">
            <stop stop-color="#E3E5E4"/>
            <stop offset="1" stop-color="#CBD0E4"/>
        </linearGradient>
        <clipPath id="clip0_143_569">
            <rect width="24" height="24" fill="white"/>
        </clipPath>
    </defs>
</svg>
