<svg width="24" height="24" viewBox="0 0 24 24" fill="none" xmlns="http://www.w3.org/2000/svg">
    <path d="M2.89999 10.4889L4.3121 7.69832C4.41396 7.49699 4.60624 7.35679 4.82913 7.32135C5.0517 7.28592 5.27829 7.3596 5.43753 7.51945L7.57638 9.66595L5.38863 12.1396L2.89999 10.4889Z" fill="#FFA400"/>
    <path d="M11.9995 3.07642C11.7817 3.07656 11.5762 3.17762 11.4432 3.35017L5.38864 11.2022L1.09317 8.33854C0.856545 8.1808 0.548155 8.18108 0.311906 8.33938C0.0756105 8.49763 -0.0420921 8.78263 0.0136889 9.06149L1.6139 16.9928C1.67962 17.3214 1.98187 17.6959 2.31702 17.6959H11.9995L14.1152 10.5469L11.9995 3.07642Z" fill="#FFDE66"/>
    <path d="M18.6114 12.1396L16.4236 9.66595L18.5625 7.51945C18.7217 7.3596 18.948 7.28592 19.1709 7.32135C19.3938 7.35674 19.586 7.49695 19.6879 7.69832L21.1 10.4889L18.6114 12.1396Z" fill="#FD7E3D"/>
    <path d="M21.683 17.6959C22.0181 17.6959 22.3204 17.3214 22.3861 16.9928L23.9863 9.06149C24.042 8.78263 23.9244 8.49763 23.6881 8.33938C23.4518 8.18113 23.1435 8.1808 22.9068 8.33854L18.6114 11.2022L12.5568 3.35017C12.4237 3.17753 12.218 3.07642 12 3.07642V17.6959H21.683V17.6959Z" fill="#FFBD44"/>
    <path d="M1.61389 20.2204C1.61389 20.6087 1.9287 20.9235 2.31702 20.9235H11.9996L13.5156 18.9581L12 16.9927H1.61389V20.2204Z" fill="#FFA400"/>
    <path d="M12 20.9236H21.683C22.0713 20.9236 22.3861 20.6088 22.3861 20.2205V16.9928H12V20.9236Z" fill="#FD7E3D"/>
    <path d="M12 14.3674C10.8337 14.3674 9.88477 13.4185 9.88477 12.2522V11.5745C9.88477 10.4081 10.8337 9.45923 12 9.45923L13.0576 12.1398L12 14.3674Z" fill="#F85038"/>
    <path d="M14.1152 12.2522V11.5745C14.1152 10.4081 13.1663 9.45923 12 9.45923V14.3674C13.1663 14.3674 14.1152 13.4185 14.1152 12.2522Z" fill="#ED1055"/>
</svg>
