<svg width="24" height="24" viewBox="0 0 24 24" fill="none" xmlns="http://www.w3.org/2000/svg">
<g id="Analitic">
<path id="Vector" d="M18.6517 7.71436L12.0002 11.0401L5.34857 7.71436L12.0002 4.38857L18.6517 7.71436Z" fill="currentColor"/>
<path id="Vector_2" d="M11.1429 15.2832V24.0003L3.42865 19.7146V14.7689L8.91436 17.5118L11.1429 15.2832Z" fill="currentColor"/>
<path id="Vector_3" d="M20.5717 14.7689V19.7146L12.8574 24.0003V15.2832L15.086 17.5118L20.5717 14.7689Z" fill="currentColor"/>
<path id="Vector_4" d="M24.0006 11.1431L15.4289 15.4289L12.6432 12.6431L21.2062 8.34875L24.0006 11.1431Z" fill="currentColor"/>
<path id="Vector_5" d="M11.3574 12.643L8.57162 15.4287L0 11.1429L2.79435 8.34857L11.3574 12.643Z" fill="currentColor"/>
<path id="Vector_6" d="M24.0006 4.28581L21.2062 7.08016L12.6432 2.78578L15.4289 0L24.0006 4.28581Z" fill="currentColor"/>
<path id="Vector_7" d="M11.3574 2.78578L2.79435 7.08016L0 4.28581L8.57162 0L11.3574 2.78578Z" fill="currentColor"/>
</g>
</svg>
