<svg width="24" height="24" viewBox="0 0 24 24" fill="none" xmlns="http://www.w3.org/2000/svg">
<g id="Brain" clip-path="url(#clip0_4303_595)">
<g id="Union">
<path d="M5.20973 11.4023C5.07081 11.3184 4.9116 11.274 4.74929 11.274H1.74594C-0.137538 8.42109 1.715 4.3274 5.37649 4.1338C4.82289 0.981387 8.43656 -1.18944 10.959 0.711849V4.32599C9.34971 3.93177 7.7953 5.21055 7.91202 6.8934C8.01515 8.37656 9.44393 9.4833 10.959 9.1111V11.274H7.96311C7.80081 11.274 7.6416 11.3184 7.50268 11.4023C7.36376 11.4862 7.25041 11.6065 7.17489 11.7502C7.09937 11.8938 7.06454 12.0554 7.07416 12.2174C7.08379 12.3794 7.1375 12.5358 7.2295 12.6695C7.68889 13.3393 7.24638 14.2675 6.43261 14.3237C5.52978 14.3861 4.99117 13.3839 5.4829 12.6695C5.5749 12.5358 5.62862 12.3794 5.63824 12.2174C5.64787 12.0554 5.61304 11.8938 5.53751 11.7502C5.46199 11.6065 5.34865 11.4862 5.20973 11.4023Z" fill="currentColor"/>
<path d="M10.9688 7.59417C10.2985 8.05403 9.37032 7.60964 9.31407 6.79728C9.25172 5.8982 10.2511 5.35303 10.9702 5.84663C11.1039 5.9385 11.2602 5.99211 11.4221 6.00167C11.5841 6.01123 11.7455 5.97637 11.8891 5.90086C12.0327 5.82536 12.1529 5.71207 12.2369 5.57322C12.3208 5.43438 12.3651 5.27525 12.3652 5.11302V0.711828C12.9739 0.251922 13.716 0.00337829 14.4789 0.00399903C16.6727 0.00399903 18.3499 2.00654 17.9383 4.17925C21.5773 4.36629 23.4575 8.45107 21.5904 11.2739H19.3591C19.7299 9.76125 18.6279 8.32966 17.141 8.227C15.4511 8.11122 14.1807 9.67219 14.5731 11.2739H12.3652V8.32497C12.3648 8.16275 12.3201 8.00373 12.2359 7.86507C12.1517 7.7264 12.0313 7.61336 11.8876 7.53814C11.7438 7.46293 11.5823 7.42839 11.4204 7.43827C11.2585 7.44814 11.1023 7.50205 10.9688 7.59417Z" fill="currentColor"/>
<path d="M21.567 12.6798H18.573C18.4108 12.6797 18.2517 12.6353 18.1128 12.5514C17.974 12.4675 17.8607 12.3473 17.7852 12.2037C17.7097 12.0601 17.6748 11.8986 17.6844 11.7367C17.694 11.5747 17.7476 11.4185 17.8394 11.2848C18.3007 10.6149 17.8568 9.68676 17.0425 9.6305C16.1411 9.56769 15.6011 10.5704 16.0928 11.2848C16.1847 11.4185 16.2383 11.5747 16.2479 11.7367C16.2574 11.8986 16.2226 12.0601 16.1471 12.2037C16.0716 12.3473 15.9583 12.4675 15.8194 12.5514C15.6806 12.6353 15.5215 12.6797 15.3592 12.6798H12.3652V14.8417C13.9693 14.4489 15.5289 15.7225 15.4122 17.4091C15.3095 18.8932 13.8803 19.999 12.3652 19.6268V23.2893C14.8877 25.1905 18.5013 23.0197 17.9477 19.8673C21.5201 19.6798 23.5058 15.6695 21.568 12.6789L21.567 12.6798Z" fill="currentColor"/>
<path d="M12.3535 16.3628C13.0707 15.8688 14.0706 16.4149 14.0082 17.3121L14.0092 17.3107C13.9529 18.1258 13.0238 18.5684 12.3545 18.1076C12.2207 18.0156 12.0644 17.9618 11.9024 17.9522C11.7404 17.9426 11.5788 17.9774 11.4352 18.0529C11.2915 18.1285 11.1712 18.2418 11.0873 18.3807C11.0033 18.5197 10.959 18.6789 10.959 18.8412V23.2897C10.3496 23.7498 9.60653 23.9982 8.84297 23.9971C6.64964 23.9971 4.97241 21.9945 5.38398 19.8218C1.71265 19.6334 -0.136145 15.5331 1.7464 12.6803H3.96176C3.58675 14.2183 4.74553 15.7324 6.35244 15.7324C7.94435 15.7324 9.13032 14.2375 8.74781 12.6803H10.959V15.6288C10.959 15.7909 11.0034 15.95 11.0872 16.0889C11.171 16.2277 11.2912 16.341 11.4347 16.4166C11.5783 16.4921 11.7397 16.5271 11.9016 16.5176C12.0635 16.5081 12.2198 16.4546 12.3535 16.3628Z" fill="currentColor"/>
</g>
</g>
<defs>
<clipPath id="clip0_4303_595">
<rect width="24.0005" height="24.0005" fill="white"/>
</clipPath>
</defs>
</svg>
