<svg width="48" height="48" viewBox="0 0 48 48" fill="none" xmlns="http://www.w3.org/2000/svg">
<mask id="path-3-inside-1_4339_311" fill="white">
<path fill-rule="evenodd" clip-rule="evenodd" d="M12 0L0 12V48H14H34H36L48 36V0H34H14H12Z"/>
</mask>
<path d="M0 12L-0.707107 11.2929L-1 11.5858V12H0ZM12 0V-1H11.5858L11.2929 -0.707107L12 0ZM0 48H-1V49H0V48ZM36 48V49H36.4142L36.7071 48.7071L36 48ZM48 36L48.7071 36.7071L49 36.4142V36H48ZM48 0H49V-1H48V0ZM0.707107 12.7071L12.7071 0.707107L11.2929 -0.707107L-0.707107 11.2929L0.707107 12.7071ZM1 48V12H-1V48H1ZM14 47H0V49H14V47ZM34 47H14V49H34V47ZM36 47H34V49H36V47ZM47.2929 35.2929L35.2929 47.2929L36.7071 48.7071L48.7071 36.7071L47.2929 35.2929ZM47 0V36H49V0H47ZM34 1H48V-1H34V1ZM14 1H34V-1H14V1ZM12 1H14V-1H12V1Z"
      fill="#E4EAED" mask="url(#path-3-inside-1_4339_311)"/>
</svg>
