<svg width="208" height="48" viewBox="0 0 208 48" fill="none" xmlns="http://www.w3.org/2000/svg">
<path d="M0 39V48H9V46H2L2 39H0Z" fill="#E4EAED"/>
<path d="M208 9L208 0L199 7.86805e-07L199 2L206 2L206 9L208 9Z" fill="#E4EAED"/>
<mask id="path-3-inside-1_11272_4105" fill="white">
<path fill-rule="evenodd" clip-rule="evenodd" d="M14 0H12L0 12V48H14H36H160H194H196L208 36V0H194H172H48H14Z"/>
</mask>
<path fill-rule="evenodd" clip-rule="evenodd" d="M14 0H12L0 12V48H14H36H160H194H196L208 36V0H194H172H48H14Z" fill="#F9FAFB"/>
<path d="M12 0V-1H11.5858L11.2929 -0.707107L12 0ZM0 12L-0.707107 11.2929L-1 11.5858V12H0ZM0 48H-1V49H0V48ZM196 48V49H196.414L196.707 48.7071L196 48ZM208 36L208.707 36.7071L209 36.4142V36H208ZM208 0H209V-1H208V0ZM12 1H14V-1H12V1ZM0.707107 12.7071L12.7071 0.707107L11.2929 -0.707107L-0.707107 11.2929L0.707107 12.7071ZM1 48V12H-1V48H1ZM14 47H0V49H14V47ZM36 47H14V49H36V47ZM160 47H36V49H160V47ZM194 47H160V49H194V47ZM196 47H194V49H196V47ZM207.293 35.2929L195.293 47.2929L196.707 48.7071L208.707 36.7071L207.293 35.2929ZM207 0V36H209V0H207ZM194 1H208V-1H194V1ZM172 1H194V-1H172V1ZM48 1H172V-1H48V1ZM14 1H48V-1H14V1Z" fill="#E4EAED" mask="url(#path-3-inside-1_11272_4105)"/>
</svg>
