<svg width="24" height="24" viewBox="0 0 24 24" fill="none" xmlns="http://www.w3.org/2000/svg">
<g clip-path="url(#clip0_1906_3594)">
<path fill-rule="evenodd" clip-rule="evenodd" d="M5.79978 0.000488281C6.46239 0.000488281 6.99958 0.537672 6.99958 1.20029V2.40009H16.5997V1.20029C16.5997 0.537672 17.1369 0.000488281 17.7995 0.000488281C18.4621 0.000488281 18.9993 0.537672 18.9993 1.20029V2.40009C20.9877 2.40009 22.5993 4.01164 22.5993 6.00007V20.4005C22.5993 22.3889 20.9877 24.0005 18.9993 24.0005H4.59997C2.61155 24.0005 1 22.3884 1 20.4005V6.00063C1 4.01221 2.61155 2.40066 4.59997 2.40066V1.20029C4.59997 0.537672 5.13716 0.000488281 5.79978 0.000488281ZM20.1997 10.8004H3.40017V20.4005C3.40017 21.0631 3.93735 21.6003 4.59997 21.6003H18.9999C19.6625 21.6003 20.1997 21.0631 20.1997 20.4005V10.8004Z" fill="#AEBAC0"/>
</g>
<defs>
<clipPath id="clip0_1906_3594">
<rect width="24" height="24" fill="white" transform="translate(0.000488281 0.000244141)"/>
</clipPath>
</defs>
</svg>
