<svg width="24" height="24" viewBox="0 0 24 24" fill="none" xmlns="http://www.w3.org/2000/svg">
<g id="Company" clip-path="url(#clip0_4303_1132)">
<g id="Union">
<path d="M22.2098 2.79273C19.8191 0.402056 15.9251 0.402056 13.533 2.79273L11.0659 5.26076L11.5661 5.76093C11.9844 6.17842 12.5513 6.4129 13.1423 6.4129C13.7333 6.4129 14.3002 6.17842 14.7185 5.76093L15.3429 5.13654C15.463 5.25799 16.3376 6.13209 17.4131 7.20689L17.4139 7.20773C19.3103 9.10294 21.8306 11.6216 21.9398 11.7386C24.5597 9.39288 24.7148 5.28138 22.2098 2.79273Z" fill="currentColor"/>
<path d="M12.6991 8.15313C13.5995 8.25395 14.5074 8.04634 15.2745 7.56425L20.5977 12.887C20.7848 13.0748 20.8899 13.3291 20.8899 13.5942C20.8899 13.8592 20.7848 14.1135 20.5977 14.3013C20.2255 14.6885 19.5557 14.6889 19.1835 14.3013L15.2548 10.3726L14.0069 11.6204L17.9347 15.5501C18.8347 16.5265 17.4973 17.8634 16.5214 16.9643L12.5908 13.0342L11.343 14.2825C11.343 14.2825 15.3012 18.2412 15.3167 18.2557V18.2581C16.0587 19.1422 15.0185 20.3553 14.0341 19.7647L14.014 19.7881C13.3352 19.0029 12.2242 18.6739 11.2333 18.9397C10.9436 17.7635 9.76091 16.872 8.57072 16.8977C8.5126 15.6316 7.44054 14.4841 6.17489 14.3472C6.32958 12.1703 3.97874 10.6778 2.06667 11.7461C-0.558392 9.40226 -0.719177 5.28467 1.78963 2.79273C4.28484 0.280646 8.40713 0.447525 10.7514 3.07821L8.56885 5.26076L10.3178 7.00924C10.9592 7.64904 11.7988 8.05231 12.6991 8.15313Z" fill="currentColor"/>
<path d="M3.41738 13.1604C3.6825 13.1604 3.9368 13.2656 4.1245 13.4528C4.31186 13.6404 4.41708 13.8948 4.41708 14.1599C4.41708 14.4251 4.31186 14.6794 4.1245 14.867L3.3698 15.6213C2.3929 16.5204 1.05693 15.183 1.95602 14.2075C2.01842 14.147 2.23743 13.927 2.4255 13.7381L2.42624 13.7374C2.55716 13.6058 2.67295 13.4895 2.71025 13.4528C2.89796 13.2656 3.15226 13.1604 3.41738 13.1604Z" fill="currentColor"/>
<path d="M5.89027 16.0931C6.12787 16.1115 6.3512 16.2138 6.52036 16.3816H6.52177C6.6394 16.4991 6.72587 16.644 6.77335 16.8033C6.82082 16.9626 6.8278 17.1312 6.79365 17.2938C6.75437 17.4843 6.6598 17.6589 6.52177 17.7959L5.85613 18.4615C5.65081 18.6912 5.3719 18.8478 5.05924 18.8426C4.52157 18.8539 4.04812 18.3809 4.05937 17.8428C4.05889 17.7115 4.0845 17.5815 4.13471 17.4602C4.18493 17.3389 4.25875 17.2288 4.35188 17.1363L5.21346 16.2747L5.2233 16.2813C5.41627 16.1415 5.65266 16.0748 5.89027 16.0931Z" fill="currentColor"/>
<path d="M8.56461 18.6621C8.43319 18.6618 8.303 18.6875 8.18158 18.7378C8.06016 18.788 7.94992 18.8619 7.85725 18.9551L7.09223 19.7206C6.71441 20.0956 6.72003 20.7556 7.10301 21.1236C7.29078 21.3107 7.54505 21.4158 7.81014 21.4158C8.07522 21.4158 8.3295 21.3107 8.51726 21.1236L9.27197 20.3689C9.89729 19.745 9.44775 18.6588 8.56461 18.6621Z" fill="currentColor"/>
<path d="M11.9371 20.6151C12.2022 20.6151 12.4565 20.7202 12.6442 20.9075C13.0314 21.2783 13.0314 21.95 12.6442 22.3217L11.8895 23.0764C11.5173 23.4632 10.8503 23.4636 10.4753 23.0764C10.0876 22.7038 10.0871 22.0344 10.4753 21.6622L11.23 20.9075C11.4177 20.7202 11.672 20.6151 11.9371 20.6151Z" fill="currentColor"/>
</g>
</g>
<defs>
<clipPath id="clip0_4303_1132">
<rect width="24.0005" height="24.0005" fill="white"/>
</clipPath>
</defs>
</svg>
