<svg width="24" height="24" viewBox="0 0 24 24" fill="none" xmlns="http://www.w3.org/2000/svg">
    <path d="M22.1887 17.3918H7.69789C6.69734 17.3918 5.88611 18.2035 5.88611 19.2044C5.88611 20.2046 6.69734 21.0162 7.69789 21.0162H22.1887C23.1888 21.0162 24 20.2046 24 19.2044C24 18.2038 23.1888 17.3918 22.1887 17.3918Z" fill="currentColor"/>
    <path d="M22.1887 10.1799H7.69789C6.69734 10.1799 5.88611 10.9912 5.88611 11.9921C5.88611 12.9926 6.69734 13.8039 7.69789 13.8039H22.1887C23.1888 13.8039 24 12.9926 24 11.9921C24 10.9915 23.1888 10.1799 22.1887 10.1799Z" fill="currentColor"/>
    <path d="M7.69789 6.59172H22.1887C23.1888 6.59172 24 5.78048 24 4.77955C24 3.77862 23.1888 2.96777 22.1887 2.96777H7.69789C6.69734 2.96777 5.88611 3.77901 5.88611 4.77955C5.88611 5.7801 6.69734 6.59172 7.69789 6.59172Z" fill="currentColor"/>
    <path d="M1.83915 6.63534C2.85489 6.63534 3.67831 5.81192 3.67831 4.79619C3.67831 3.78045 2.85489 2.95703 1.83915 2.95703C0.823417 2.95703 0 3.78045 0 4.79619C0 5.81192 0.823417 6.63534 1.83915 6.63534Z" fill="currentColor"/>
    <path d="M1.83914 13.8309C2.85466 13.8309 3.6779 13.0076 3.6779 11.9921C3.6779 10.9766 2.85466 10.1533 1.83914 10.1533C0.823611 10.1533 0.000366211 10.9766 0.000366211 11.9921C0.000366211 13.0076 0.823611 13.8309 1.83914 13.8309Z" fill="currentColor"/>
    <path d="M1.83915 21.0433C2.85489 21.0433 3.67831 20.2199 3.67831 19.2041C3.67831 18.1884 2.85489 17.365 1.83915 17.365C0.823417 17.365 0 18.1884 0 19.2041C0 20.2199 0.823417 21.0433 1.83915 21.0433Z" fill="currentColor"/>
</svg>
