<svg width="24" height="24" viewBox="0 0 24 24" fill="none" xmlns="http://www.w3.org/2000/svg">
    <path d="M21 15.142V13C21 11.897 20.1025 11 19 11H13V8.85803C14.7205 8.41084 16 6.85834 16 4.99998C16 2.79442 14.206 1 12 1C9.79397 1 8.00002 2.79442 8.00002 4.99998C8.00002 6.85834 9.27952 8.4108 11 8.85803V11H5.00002C3.89747 11 3 11.8969 3 13V15.1419C1.2795 15.5891 0 17.1416 0 19C0 21.2055 1.79395 22.9999 3.99998 22.9999C6.20602 22.9999 7.99997 21.2055 7.99997 19C7.99997 17.1416 6.72047 15.5891 4.99997 15.1419V13H19V15.1419C17.2795 15.5891 16 17.1416 16 19C16 21.2055 17.7939 22.9999 20 22.9999C22.206 22.9999 24 21.2055 24 19C24 17.1416 22.7205 15.5891 21 15.142Z" fill="currentColor"/>
</svg>
