<svg width="24" height="24" viewBox="0 0 24 24" fill="none" xmlns="http://www.w3.org/2000/svg">
    <path d="M9.26439 1.99976H3.52232C2.68266 1.99976 1.99963 2.68278 1.99963 3.52244V9.26451C1.99963 10.1042 2.68266 10.7872 3.52232 10.7872H9.26439C10.1041 10.7872 10.7871 10.1042 10.7871 9.26451V3.52244C10.7869 2.68278 10.1041 1.99976 9.26439 1.99976Z" fill="currentColor"/>
    <path d="M20.4769 1.99976H14.7348C13.8952 1.99976 13.2122 2.68278 13.2122 3.52244V9.26451C13.2122 10.1042 13.8952 10.7872 14.7348 10.7872H20.4769C21.3166 10.7872 21.9996 10.1042 21.9996 9.26451V3.52244C21.9996 2.68278 21.3166 1.99976 20.4769 1.99976Z" fill="currentColor"/>
    <path d="M9.26439 13.2126H3.52232C2.68266 13.2126 1.99963 13.8956 1.99963 14.7353V20.4773C1.99963 21.317 2.68266 22 3.52232 22H9.26439C10.1041 22 10.7871 21.317 10.7871 20.4773V14.7353C10.7869 13.8956 10.1041 13.2126 9.26439 13.2126Z" fill="currentColor"/>
    <path d="M20.4769 13.2126H14.7348C13.8952 13.2126 13.2122 13.8957 13.2122 14.7353V20.4774C13.2122 21.3171 13.8952 22.0001 14.7348 22.0001H20.4769C21.3166 22 21.9996 21.317 21.9996 20.4773V14.7353C21.9996 13.8956 21.3166 13.2126 20.4769 13.2126Z" fill="currentColor"/>
</svg>
