<svg width="23" height="23" viewBox="0 0 23 23" fill="none" xmlns="http://www.w3.org/2000/svg">
<path d="M20 1.5C20 2.32843 20.6716 3 21.5 3C22.3284 3 23 2.32843 23 1.5C23 0.671573 22.3284 0 21.5 0C20.6716 0 20 0.671573 20 1.5Z" fill="white"/>
<path d="M10 1.5C10 2.32843 10.6716 3 11.5 3C12.3284 3 13 2.32843 13 1.5C13 0.671573 12.3284 0 11.5 0C10.6716 0 10 0.671573 10 1.5Z" fill="white"/>
<path d="M21.5 13C20.6716 13 20 12.3284 20 11.5C20 10.6716 20.6716 10 21.5 10C22.3284 10 23 10.6716 23 11.5C23 12.3284 22.3284 13 21.5 13Z" fill="white"/>
<path d="M21.5 23C20.6716 23 20 22.3284 20 21.5C20 20.6716 20.6716 20 21.5 20C22.3284 20 23 20.6716 23 21.5C23 22.3284 22.3284 23 21.5 23Z" fill="white"/>
<path d="M0 1.5C0 2.32843 0.671574 3 1.5 3C2.32843 3 3 2.32843 3 1.5C3 0.671573 2.32843 0 1.5 0C0.671574 0 0 0.671573 0 1.5Z" fill="white"/>
<path d="M11.5 13C10.6716 13 10 12.3284 10 11.5C10 10.6716 10.6716 10 11.5 10C12.3284 10 13 10.6716 13 11.5C13 12.3284 12.3284 13 11.5 13Z" fill="white"/>
</svg>
