<svg xmlns="http://www.w3.org/2000/svg" width="23" height="23" viewBox="0 0 23 23" fill="none">
    <path d="M20.0005 1.5C20.0005 2.32843 20.6721 3 21.5005 3C22.3289 3 23.0005 2.32843 23.0005 1.5C23.0005 0.671573 22.3289 0 21.5005 0C20.6721 0 20.0005 0.671573 20.0005 1.5Z" fill="currentColor"/>
    <path d="M10.0005 1.5C10.0005 2.32843 10.6721 3 11.5005 3C12.3289 3 13.0005 2.32843 13.0005 1.5C13.0005 0.671573 12.3289 0 11.5005 0C10.6721 0 10.0005 0.671573 10.0005 1.5Z" fill="currentColor"/>
    <path d="M21.5005 13C20.6721 13 20.0005 12.3284 20.0005 11.5C20.0005 10.6716 20.6721 10 21.5005 10C22.3289 10 23.0005 10.6716 23.0005 11.5C23.0005 12.3284 22.3289 13 21.5005 13Z" fill="currentColor"/>
    <path d="M21.5005 23C20.6721 23 20.0005 22.3284 20.0005 21.5C20.0005 20.6716 20.6721 20 21.5005 20C22.3289 20 23.0005 20.6716 23.0005 21.5C23.0005 22.3284 22.3289 23 21.5005 23Z" fill="currentColor"/>
    <path d="M0.000488281 1.5C0.000488281 2.32843 0.672062 3 1.50049 3C2.32891 3 3.00049 2.32843 3.00049 1.5C3.00049 0.671573 2.32891 0 1.50049 0C0.672062 0 0.000488281 0.671573 0.000488281 1.5Z" fill="currentColor"/>
    <path d="M11.5005 13C10.6721 13 10.0005 12.3284 10.0005 11.5C10.0005 10.6716 10.6721 10 11.5005 10C12.3289 10 13.0005 10.6716 13.0005 11.5C13.0005 12.3284 12.3289 13 11.5005 13Z" fill="currentColor"/>
</svg>