<svg width="24" height="24" viewBox="0 0 24 24" fill="none" xmlns="http://www.w3.org/2000/svg">
<path fill-rule="evenodd" clip-rule="evenodd" d="M12.5 1C12.78 1 13 1.22 13 1.5V6C13 7.66 14.34 9 16 9H20.5C20.78 9 21 9.22 21 9.5V20C21 21.66 19.66 23 18 23H6C4.34 23 3 21.66 3 20V4C3 2.34 4.34 1 6 1H12.5ZM13 12C13 11.45 12.55 11 12 11C11.45 11 11 11.45 11 12V15.59L9.71 14.3C9.32 13.91 8.69 13.91 8.3 14.3C7.91 14.69 7.91 15.32 8.3 15.71L11.3 18.71C11.69 19.1 12.32 19.1 12.71 18.71L15.71 15.71C16.1 15.32 16.1 14.69 15.71 14.3C15.32 13.91 14.69 13.91 14.3 14.3L13.01 15.59V12H13ZM15 1.17C15 1.08 15.08 1 15.17 1C15.7 1 16.21 1.21 16.58 1.59L20.41 5.42C20.79 5.8 21 6.3 21 6.83C21 6.92 20.92 7 20.83 7H16C15.45 7 15 6.55 15 6V1.17Z" fill="currentColor"/>
</svg>
