<svg width="24" height="24" viewBox="0 0 24 24" fill="none" xmlns="http://www.w3.org/2000/svg">
    <path id="Vector" fill-rule="evenodd" clip-rule="evenodd" d="M11.9995 2.39976C6.69758 2.39976 2.39951 6.69782 2.39951 11.9998C2.39951 17.3017 6.69758 21.5998 11.9995 21.5998C17.3015 21.5998 21.5995 17.3017 21.5995 11.9998V11.3998C21.5995 10.737 22.1368 10.1998 22.7995 10.1998C23.4623 10.1998 23.9995 10.737 23.9995 11.3998V11.9998C23.9995 18.6271 18.6269 23.9998 11.9995 23.9998C5.37209 23.9998 -0.000488281 18.6271 -0.000488281 11.9998C-0.000488281 5.37234 5.37209 -0.000244141 11.9995 -0.000244141H12.5995C13.2623 -0.000244141 13.7995 0.53702 13.7995 1.19976C13.7995 1.86249 13.2623 2.39976 12.5995 2.39976H11.9995Z" fill="#29BEE9"/>
    <path id="Vector_2" fill-rule="evenodd" clip-rule="evenodd" d="M18.2582 0.984812C18.8889 0.354092 19.7444 -0.000244141 20.6363 -0.000244141C21.5283 -0.000244141 22.3837 0.354092 23.0144 0.984812C23.6451 1.61553 23.9995 2.47096 23.9995 3.36294C23.9995 4.25491 23.6451 5.11035 23.0144 5.74107L22.0747 6.68084C21.6061 7.14948 20.8462 7.14948 20.3776 6.68084L17.3183 3.62164C16.8497 3.15301 16.8497 2.39322 17.3183 1.92458L18.2582 0.984812ZM15.6213 5.3187C15.1527 4.85006 14.3929 4.85006 13.9243 5.3187L8.57069 10.6723C8.4169 10.826 8.30781 11.0188 8.25506 11.2297L7.23532 15.3088C7.13308 15.7176 7.2529 16.1502 7.55096 16.4483C7.84901 16.7464 8.2816 16.8661 8.69054 16.7639L12.7695 15.7442C12.9805 15.6914 13.1732 15.5824 13.3269 15.4285L18.6806 10.075C19.1492 9.60636 19.1492 8.84653 18.6806 8.3779L15.6213 5.3187Z" fill="white"/>
</svg>
