<svg width="24" height="24" viewBox="0 0 24 24" fill="none" xmlns="http://www.w3.org/2000/svg">
<g id="Exit door" clip-path="url(#clip0_120_1984)">
<path id="Vector" d="M9.19951 0.000244141V2.40024H1.99951V21.6002H9.19951V24.0002L21.1995 21.6002V2.40024L9.19951 0.000244141ZM9.19951 19.2002H4.39951V4.80024H9.19951V19.2002ZM12.8091 13.1522C12.5762 13.1522 12.3485 13.0832 12.1549 12.9538C11.9612 12.8244 11.8103 12.6405 11.7212 12.4253C11.632 12.2101 11.6087 11.9733 11.6541 11.7449C11.6996 11.5165 11.8117 11.3066 11.9764 11.142C12.1411 10.9773 12.3509 10.8651 12.5794 10.8197C12.8078 10.7742 13.0446 10.7976 13.2598 10.8867C13.4749 10.9758 13.6589 11.1267 13.7883 11.3204C13.9176 11.5141 13.9867 11.7417 13.9867 11.9746C13.9864 12.2869 13.8622 12.5862 13.6414 12.807C13.4207 13.0277 13.1213 13.1519 12.8091 13.1522Z" fill="currentColor"/>
</g>
<defs>
<clipPath id="clip0_120_1984">
<rect width="24" height="24" fill="white"/>
</clipPath>
</defs>
</svg>
