<svg width="100" height="85" viewBox="0 0 100 85" fill="none" xmlns="http://www.w3.org/2000/svg">
<path fill-rule="evenodd" clip-rule="evenodd" d="M100 76.8092H72.1861L75.7035 85H71.5368L34.8485 0H39.0152L42.5325 8.19081H100V76.8092ZM96.2121 11.9879H44.1558L66.7208 64.1704L67.1537 65.201L70.5087 73.0121H96.158V11.9879H96.2121ZM73.2684 65.201H69.1558V46.1615H73.8636L78.7879 57.4442L83.6039 46.1615H88.3117L88.3658 65.2553H84.2532L84.1991 53.8098L79.7078 63.7907H77.7056L73.2143 54.081V65.201H73.2684ZM78.6255 26.5795C79.329 26.9049 80.3571 27.2304 81.71 27.5016C83.171 27.8271 84.3615 28.2068 85.2814 28.5322C86.2013 28.8577 87.013 29.4001 87.6623 30.1595C88.3117 30.919 88.6364 31.8953 88.6364 33.1972C88.6364 34.2821 88.3117 35.2585 87.7165 36.1806C87.1212 37.1027 86.2013 37.8079 85.0108 38.2961C83.8204 38.8385 82.3052 39.1098 80.5736 39.1098C79.0584 39.1098 77.5974 38.8928 76.1905 38.5131C74.7836 38.0791 73.6472 37.5909 72.7814 36.94L74.2965 33.6311C75.1082 34.2278 76.0823 34.716 77.2186 35.0957C78.355 35.4754 79.4913 35.6382 80.5736 35.6382C81.8182 35.6382 82.7381 35.4754 83.3333 35.0957C83.9286 34.716 84.2532 34.2278 84.2532 33.6311C84.2532 33.1972 84.0909 32.8175 83.7121 32.492C83.3333 32.1666 82.9004 31.9496 82.3593 31.7869C81.8182 31.6241 81.0606 31.4071 80.1407 31.1902C78.6797 30.8647 77.4892 30.485 76.5693 30.1595C75.6494 29.8341 74.8377 29.2374 74.1883 28.478C73.539 27.7186 73.2143 26.6879 73.2143 25.4403C73.2143 24.3555 73.539 23.3248 74.1342 22.4569C74.7294 21.5348 75.6494 20.8296 76.8398 20.3414C78.0303 19.799 79.4913 19.5278 81.2771 19.5278C82.4675 19.5278 83.658 19.6905 84.8485 19.9617C85.9848 20.2329 87.013 20.6669 87.8788 21.2093L86.526 24.5724C84.7944 23.596 83.0087 23.0536 81.2771 23.0536C80.0325 23.0536 79.1125 23.2706 78.5714 23.6503C77.9762 24.03 77.7056 24.5724 77.7056 25.2234C77.5974 25.7658 77.9221 26.254 78.6255 26.5795ZM64.9351 38.7843H60.5519V23.3248H54.4913V19.7447H71.0498V23.3248H64.9351V38.7843ZM44.4805 49.6873H34.4697V53.8098H43.29V57.2272H34.4697V61.6209H44.8052V65.1468H30.0866V46.1615H44.4805V49.6873ZM28.6797 20.9381C30.2489 21.7518 31.4935 22.8366 32.3593 24.3012C33.2251 25.7116 33.658 27.3931 33.658 29.2916C33.658 31.1902 33.2251 32.8717 32.3593 34.2821C31.4935 35.6924 30.2489 36.8315 28.6797 37.6452C27.1104 38.4588 25.2706 38.8385 23.2143 38.8385H11.3095V19.7447H23.2143C25.2706 19.7447 27.1104 20.1244 28.6797 20.9381ZM15.6926 23.3791V35.2042H22.9978C24.8918 35.2042 26.4069 34.6618 27.5433 33.6311C28.6797 32.5463 29.2208 31.1359 29.2208 29.2916C29.2208 27.5016 28.6797 26.037 27.5433 24.9521C26.4069 23.8673 24.8918 23.3791 22.9978 23.3791H15.6926ZM17.2619 65.201V49.7415H11.1472V46.1615H27.7056V49.7415H21.645V65.201H17.2619ZM45.3463 34.716H40.4221L38.7446 38.7843H34.2532L40.8009 24.0842L42.9113 28.9119L41.8831 31.3529H43.9394L45.3463 34.716ZM56.8723 61.1327H52.0563L50.3788 65.201H45.8874L52.3268 50.6637L54.4372 55.4914L53.4632 57.7696H55.4113L56.8723 61.1327ZM3.78788 11.9879V73.0121H62.013L63.6905 76.8092H0V8.19081H33.8203L35.4978 11.9879H3.78788Z" fill="currentColor"/> 
</svg>
