<svg width="26" height="28" viewBox="0 0 26 28" fill="none" xmlns="http://www.w3.org/2000/svg">
<path d="M22.2105 19.7193C21.3852 19.7193 20.7135 19.0478 20.7135 18.2222V12.2339C20.7135 7.69367 17.0197 3.99995 12.4795 3.99995C7.93933 3.99995 4.24561 7.69367 4.24561 12.2339V18.2222C4.24561 19.0478 3.5742 19.7193 2.74854 19.7193C2.33516 19.7193 2 20.0544 2 20.4678V22.7134C2 23.1268 2.33516 23.4619 2.74854 23.4619H22.2105C22.6243 23.4619 22.9591 23.1268 22.9591 22.7134V20.4678C22.9591 20.0544 22.6243 19.7193 22.2105 19.7193Z" fill="currentColor"/>
<path d="M8.25037 24.959C8.86888 26.7006 10.5285 27.9532 12.4796 27.9532C14.4306 27.9532 16.0903 26.7006 16.7088 24.959H8.25037Z" fill="currentColor"/> 
</svg>
