<svg width="24" height="24" viewBox="0 0 24 24" xmlns="http://www.w3.org/2000/svg">
    <g clip-path="url(#clip0_143_482)">
        <path
            d="M14 1.5V3.9C14 4.7 13.3 5.4 12.5 5.4C11.7 5.4 11 4.7 11 3.9V1.5C11 0.7 11.7 0 12.5 0C13.3 0 14 0.7 14 1.5Z"
            fill="currentColor" />
        <path fill-rule="evenodd" clip-rule="evenodd"
            d="M4 5.2C4 3.6 5.3 2.2 7 2.2H9.1V3.9C9.1 5.8 10.6 7.3 12.5 7.3C14.4 7.3 15.9 5.8 15.9 3.9V2.2H18C19.7 2.2 21 3.5 21 5.2V21C21 22.6 19.7 24 18 24H7C5.3 24 4 22.7 4 21V5.2ZM14.7 12.7C14.7 11.5 13.7 10.5 12.5 10.5C11.3 10.5 10.3 11.5 10.3 12.7C10.3 13.9 11.3 14.9 12.5 14.9C13.7 14.9 14.7 13.9 14.7 12.7ZM10.6 16.6C10.4 16.5 10.1 16.4 9.9 16.6C9.3 17 8.8 17.5 8.5 18.2C8 19.1 8.6 20.2 9.7 20.2H15.4C16.5 20.2 17.1 19 16.6 18.1C16.2 17.5 15.8 17 15.2 16.6C15 16.5 14.7 16.5 14.5 16.6C13.9 16.8 13.2 17 12.5 17C11.8 17 11.2 16.9 10.6 16.6Z"
            fill="currentColor" />
    </g>
    <defs>
        <clipPath id="clip0_143_482">
            <rect width="24" height="24" fill="currentColor"
                transform="translate(0.000488281 0.000244141)" />
        </clipPath>
    </defs>
</svg>
