<svg width="24" height="24" viewBox="0 0 24 24" fill="none" xmlns="http://www.w3.org/2000/svg">
<g id="Rocket">
<path id="path7143" d="M21.3088 0C17.3166 0 11.9594 2.73916 8.36151 7.44882H5.37904C3.22415 7.44882 1.98904 9.05708 1.13854 10.7581L0 13.0352H5.37904L8.17221 15.8283L10.9654 18.6215V24.0005L13.2425 22.862C14.9435 22.0115 16.5517 20.7764 16.5517 18.6215V15.639C21.2614 12.0385 24.0005 6.68397 24.0005 2.6917V0H21.3088ZM16.5517 5.58634C16.9201 5.58624 17.2803 5.69538 17.5866 5.89996C17.893 6.10455 18.1318 6.39539 18.2728 6.7357C18.4139 7.07602 18.4508 7.45052 18.379 7.81184C18.3072 8.17316 18.1299 8.50507 17.8694 8.7656C17.609 9.02613 17.2771 9.20356 16.9158 9.27547C16.5545 9.34738 16.18 9.31053 15.8397 9.16958C15.4993 9.02863 15.2084 8.78991 15.0037 8.48362C14.799 8.17732 14.6898 7.81721 14.6898 7.44882C14.6897 7.20426 14.7378 6.96209 14.8314 6.73612C14.9249 6.51016 15.062 6.30484 15.2349 6.13188C15.4079 5.95893 15.6131 5.82173 15.8391 5.72813C16.065 5.63452 16.3072 5.58634 16.5517 5.58634ZM4.44834 16.759L3.51711 17.6903C2.17235 19.035 1.65517 22.3454 1.65517 22.3454C1.65517 22.3454 4.81931 21.9766 6.31028 20.4834L7.24152 19.5522L4.44834 16.759Z" fill="currentColor"/>
</g>
</svg>
