<svg width="220" height="96" viewBox="0 0 220 96" fill="none" xmlns="http://www.w3.org/2000/svg">
  <mask id="path-3-inside-1_4340_4027" fill="white">
    <path fill-rule="evenodd" clip-rule="evenodd" d="M14 48H12L0 60V96H14H36H172H206H208L220 84V48H206H184H48H14Z"/>
  </mask>
  <path d="M12 48V47H11.5858L11.2929 47.2929L12 48ZM0 60L-0.707107 59.2929L-1 59.5858V60H0ZM0 96H-1V97H0V96ZM208 96V97H208.414L208.707 96.7071L208 96ZM220 84L220.707 84.7071L221 84.4142V84H220ZM220 48H221V47H220V48ZM12 49H14V47H12V49ZM0.707107 60.7071L12.7071 48.7071L11.2929 47.2929L-0.707107 59.2929L0.707107 60.7071ZM1 96V60H-1V96H1ZM14 95H0V97H14V95ZM36 95H14V97H36V95ZM172 95H36V97H172V95ZM206 95H172V97H206V95ZM208 95H206V97H208V95ZM219.293 83.2929L207.293 95.2929L208.707 96.7071L220.707 84.7071L219.293 83.2929ZM219 48V84H221V48H219ZM206 49H220V47H206V49ZM184 49H206V47H184V49ZM48 49H184V47H48V49ZM14 49H48V47H14V49Z" fill="#29BEE9" mask="url(#path-3-inside-1_4340_4027)"/>
  <path fill-rule="evenodd" clip-rule="evenodd" d="M220 59L220 49L220 48L219 48L209 48L209 49L219 49L219 59L220 59Z" fill="#F9FAFB"/>
  <path fill-rule="evenodd" clip-rule="evenodd" d="M220 56L220 49L220 48L219 48L212 48L212 49L219 49L219 56L220 56Z" fill="#192027"/>
  <path fill-rule="evenodd" clip-rule="evenodd" d="M-4.80825e-07 85L-4.37114e-08 95L0 96L1 96L11 96L11 95L1 95L1 85L-4.80825e-07 85Z" fill="#F9FAFB"/>
  <path fill-rule="evenodd" clip-rule="evenodd" d="M-3.49691e-07 88L-4.37114e-08 95L0 96L1 96L8 96L8 95L1 95L1 88L-3.49691e-07 88Z" fill="#192027"/>
  <mask id="path-11-inside-2_4340_4027" fill="white">
    <path fill-rule="evenodd" clip-rule="evenodd" d="M14 0H12L0 12V48H14H36H172H206H208L220 36V0H206H184H48H14Z"/>
  </mask>
  <path d="M12 0V-1H11.5858L11.2929 -0.707107L12 0ZM0 12L-0.707107 11.2929L-1 11.5858V12H0ZM0 48H-1V49H0V48ZM208 48V49H208.414L208.707 48.7071L208 48ZM220 36L220.707 36.7071L221 36.4142V36H220ZM220 0H221V-1H220V0ZM12 1H14V-1H12V1ZM0.707107 12.7071L12.7071 0.707107L11.2929 -0.707107L-0.707107 11.2929L0.707107 12.7071ZM1 48V12H-1V48H1ZM14 47H0V49H14V47ZM36 47H14V49H36V47ZM172 47H36V49H172V47ZM206 47H172V49H206V47ZM208 47H206V49H208V47ZM219.293 35.2929L207.293 47.2929L208.707 48.7071L220.707 36.7071L219.293 35.2929ZM219 0V36H221V0H219ZM206 1H220V-1H206V1ZM184 1H206V-1H184V1ZM48 1H184V-1H48V1ZM14 1H48V-1H14V1Z" fill="#E4EAED" mask="url(#path-11-inside-2_4340_4027)"/>
  <path fill-rule="evenodd" clip-rule="evenodd" d="M220 11L220 0.999998L220 0L219 -4.37114e-08L209 -4.80825e-07L209 0.999997L219 0.999998L219 11L220 11Z" fill="#F9FAFB"/>
  <path fill-rule="evenodd" clip-rule="evenodd" d="M220 8L220 0.999998L220 0L219 -4.37114e-08L212 -3.49691e-07L212 0.999998L219 0.999998L219 8L220 8Z" fill="#192027"/>
  <path fill-rule="evenodd" clip-rule="evenodd" d="M-4.80825e-07 37L-4.37109e-08 47L0 48L1 48L11 48L11 47L1 47L1 37L-4.80825e-07 37Z" fill="#F9FAFB"/>
  <path fill-rule="evenodd" clip-rule="evenodd" d="M-3.49691e-07 40L-4.37109e-08 47L0 48L1 48L8 48L8 47L1 47L1 40L-3.49691e-07 40Z" fill="#192027"/>
</svg>