<svg xmlns="http://www.w3.org/2000/svg" width="24" height="24" viewBox="0 0 24 24" fill="none">
  <path d="M21.3773 18.2405L18.5711 15.4343C21.0726 11.2002 19.6682 5.74064 15.4341 3.23911C11.2001 0.737578 5.74 2.14199 3.23899 6.37603C0.737456 10.6096 2.14187 16.0697 6.37591 18.5707C9.16966 20.221 12.6404 20.221 15.4341 18.5707L18.2404 21.3769C19.1217 22.2281 20.5261 22.2036 21.3773 21.3223C22.2077 20.4628 22.2077 19.0995 21.3773 18.24V18.2405ZM10.9349 15.3719C8.48435 15.3719 6.4981 13.3851 6.4981 10.9351C6.4981 8.48499 8.48487 6.49822 10.9349 6.49822C13.385 6.49822 15.3718 8.48499 15.3718 10.9351C15.3718 13.3851 13.385 15.3719 10.9349 15.3719Z" fill="#AEBAC0"/>
</svg>