<svg width="220" height="48" viewBox="0 0 220 48" fill="none" xmlns="http://www.w3.org/2000/svg">
  <mask id="path-11-inside-2_4340_4027" fill="white">
    <path fill-rule="evenodd" clip-rule="evenodd" d="M14 0H12L0 12V48H14H36H172H206H208L220 36V0H206H184H48H14Z"/>
  </mask>
  <path d="M12 0V-1H11.5858L11.2929 -0.707107L12 0ZM0 12L-0.707107 11.2929L-1 11.5858V12H0ZM0 48H-1V49H0V48ZM208 48V49H208.414L208.707 48.7071L208 48ZM220 36L220.707 36.7071L221 36.4142V36H220ZM220 0H221V-1H220V0ZM12 1H14V-1H12V1ZM0.707107 12.7071L12.7071 0.707107L11.2929 -0.707107L-0.707107 11.2929L0.707107 12.7071ZM1 48V12H-1V48H1ZM14 47H0V49H14V47ZM36 47H14V49H36V47ZM172 47H36V49H172V47ZM206 47H172V49H206V47ZM208 47H206V49H208V47ZM219.293 35.2929L207.293 47.2929L208.707 48.7071L220.707 36.7071L219.293 35.2929ZM219 0V36H221V0H219ZM206 1H220V-1H206V1ZM184 1H206V-1H184V1ZM48 1H184V-1H48V1ZM14 1H48V-1H14V1Z" fill="#E4EAED" mask="url(#path-11-inside-2_4340_4027)"/>
  <path fill-rule="evenodd" clip-rule="evenodd" d="M220 11L220 0.999998L220 0L219 -4.37114e-08L209 -4.80825e-07L209 0.999997L219 0.999998L219 11L220 11Z" fill="#F9FAFB"/>
  <path fill-rule="evenodd" clip-rule="evenodd" d="M220 8L220 0.999998L220 0L219 -4.37114e-08L212 -3.49691e-07L212 0.999998L219 0.999998L219 8L220 8Z" fill="#192027"/>
  <path fill-rule="evenodd" clip-rule="evenodd" d="M-4.80825e-07 37L-4.37109e-08 47L0 48L1 48L11 48L11 47L1 47L1 37L-4.80825e-07 37Z" fill="#F9FAFB"/>
  <path fill-rule="evenodd" clip-rule="evenodd" d="M-3.49691e-07 40L-4.37109e-08 47L0 48L1 48L8 48L8 47L1 47L1 40L-3.49691e-07 40Z" fill="#192027"/>
</svg>