<svg width="20" height="24" viewBox="0 -4 20 24" fill="none" xmlns="http://www.w3.org/2000/svg">
<path d="M20 1.33333C20 1.68696 19.8595 2.02609 19.6095 2.27614C19.3594 2.52619 19.0203 2.66667 18.6667 2.66667H1.33333C0.979711 2.66667 0.640573 2.52619 0.390524 2.27614C0.140476 2.02609 0 1.68696 0 1.33333C0 0.979711 0.140476 0.640573 0.390524 0.390524C0.640573 0.140476 0.979711 0 1.33333 0H18.6667C19.0203 0 19.3594 0.140476 19.6095 0.390524C19.8595 0.640573 20 0.979711 20 1.33333ZM16 6H4C3.64638 6 3.30724 6.14048 3.05719 6.39052C2.80714 6.64057 2.66667 6.97971 2.66667 7.33333C2.66667 7.68696 2.80714 8.02609 3.05719 8.27614C3.30724 8.52619 3.64638 8.66667 4 8.66667H16C16.3536 8.66667 16.6928 8.52619 16.9428 8.27614C17.1929 8.02609 17.3333 7.68696 17.3333 7.33333C17.3333 6.97971 17.1929 6.64057 16.9428 6.39052C16.6928 6.14048 16.3536 6 16 6ZM14 12H6C5.64638 12 5.30724 12.1405 5.05719 12.3905C4.80714 12.6406 4.66667 12.9797 4.66667 13.3333C4.66667 13.687 4.80714 14.0261 5.05719 14.2761C5.30724 14.5262 5.64638 14.6667 6 14.6667H14C14.3536 14.6667 14.6928 14.5262 14.9428 14.2761C15.1929 14.0261 15.3333 13.687 15.3333 13.3333C15.3333 12.9797 15.1929 12.6406 14.9428 12.3905C14.6928 12.1405 14.3536 12 14 12Z" fill="currentColor"/>
</svg>
