<svg width="48" height="48" viewBox="0 0 48 48" fill="none" xmlns="http://www.w3.org/2000/svg">
    <path d="M12.8025 30.3218L14.4745 28.6498L19.3815 33.5568C19.6824 33.8578 19.6824 34.3463 19.3815 34.6472L18.2547 35.774C17.9537 36.075 17.4652 36.075 17.1643 35.774L12.8025 31.4123C12.5015 31.1113 12.5015 30.6228 12.8025 30.3218ZM30.3223 12.802L28.6503 14.474L33.5573 19.381C33.8582 19.682 34.3467 19.682 34.6477 19.381L35.7745 18.2542C36.0755 17.9533 36.0755 17.4648 35.7745 17.1638L31.4127 12.802C31.1118 12.5011 30.6232 12.5011 30.3223 12.802ZM17.2006 17.2001C17.5019 16.8988 17.5019 16.411 17.2006 16.1097L16.1102 15.0193C15.8088 14.7179 15.321 14.7179 15.0197 15.0193C14.7184 15.3206 14.7184 15.8084 15.0197 16.1097L16.1102 17.2001C16.4115 17.5015 16.8993 17.5015 17.2006 17.2001ZM29.1955 29.195C28.8942 29.4963 28.8942 29.9841 29.1955 30.2855L30.2859 31.3759C30.5872 31.6772 31.075 31.6772 31.3764 31.3759C31.6777 31.0746 31.6777 30.5868 31.3764 30.2855L30.2859 29.195C29.9846 28.8937 29.4968 28.8937 29.1955 29.195ZM14.0612 21.547C14.4698 21.6582 14.8936 21.4147 15.0052 21.0022C15.1153 20.5903 14.8714 20.1676 14.4596 20.0582L12.9704 19.6595C12.5582 19.5475 12.1366 19.7947 12.0264 20.2043C11.9163 20.6161 12.1602 21.0389 12.572 21.1483L14.0612 21.547ZM32.3349 24.8481C31.9223 24.7358 31.5007 24.983 31.3909 25.393C31.2808 25.8048 31.5247 26.2276 31.9365 26.337L33.4257 26.7357C33.8342 26.8469 34.258 26.6034 34.3696 26.1909C34.4798 25.779 34.2359 25.3563 33.8241 25.2469L32.3349 24.8481ZM21.003 15.0051C21.4159 14.8931 21.6591 14.4689 21.5478 14.0611L21.1491 12.5719C21.0393 12.1597 20.6166 11.9158 20.2051 12.0263C19.7962 12.1394 19.5491 12.5588 19.6603 12.9703L20.059 14.4595C20.1688 14.8717 20.5915 15.1156 21.003 15.0051ZM25.3935 31.3904C24.9849 31.5017 24.737 31.9226 24.8486 32.3344L25.2473 33.8236C25.3571 34.2358 25.7798 34.4797 26.1913 34.3692C26.6042 34.2572 26.8474 33.833 26.7362 33.4252L26.3374 31.936C26.2277 31.5238 25.8049 31.2799 25.3935 31.3904ZM21.0172 22.1071L19.3815 23.7428C19.0802 24.0441 18.5924 24.0441 18.291 23.7428C17.9897 23.4415 17.9897 22.9537 18.291 22.6524L19.6072 21.3362L16.6557 21.3362C16.2297 21.3362 15.8848 21.6811 15.8848 22.1071L15.8844 27.2399L15.5649 27.5594L19.9267 31.9211L20.2546 31.5933C21.7274 31.5111 23.1468 30.8819 24.1903 29.8384L25.9241 28.1046C26.1164 27.9123 26.2567 27.6898 26.3669 27.4569L21.0172 22.1071ZM22.1076 15.8836C21.6816 15.8836 21.3367 16.2286 21.3367 16.6546V19.6067L22.6528 18.2906C22.9541 17.9893 23.4419 17.9893 23.7433 18.2906C24.0446 18.5919 24.0446 19.0797 23.7433 19.381L22.1076 21.0167L27.4573 26.3664C27.6899 26.2559 27.9128 26.116 28.105 25.9237L29.8388 24.1899C30.8824 23.1463 31.5119 21.7266 31.5937 20.2541L31.9216 19.9262L27.5598 15.5645L27.2403 15.884L22.1076 15.8836Z"
          fill="currentColor"/>
</svg>
