<svg width="48" height="48" viewBox="0 0 48 48" fill="none" xmlns="http://www.w3.org/2000/svg">
<path d="M26 13.4998V15.8998C26 16.6998 25.3 17.3998 24.5 17.3998C23.7 17.3998 23 16.6998 23 15.8998V13.4998C23 12.6998 23.7 11.9998 24.5 11.9998C25.3 11.9998 26 12.6998 26 13.4998Z"
      fill="currentColor"/>
<path fill-rule="evenodd" clip-rule="evenodd" d="M16 17.1998C16 15.5998 17.3 14.1998 19 14.1998H21.1V15.8998C21.1 17.7998 22.6 19.2998 24.5 19.2998C26.4 19.2998 27.9 17.7998 27.9 15.8998V14.1998H30C31.7 14.1998 33 15.4998 33 17.1998V32.9998C33 34.5998 31.7 35.9998 30 35.9998H19C17.3 35.9998 16 34.6998 16 32.9998V17.1998ZM26.7 24.6998C26.7 23.4998 25.7 22.4998 24.5 22.4998C23.3 22.4998 22.3 23.4998 22.3 24.6998C22.3 25.8998 23.3 26.8998 24.5 26.8998C25.7 26.8998 26.7 25.8998 26.7 24.6998ZM22.6 28.5998C22.4 28.4998 22.1 28.3998 21.9 28.5998C21.3 28.9998 20.8 29.4998 20.5 30.1998C20 31.0998 20.6 32.1998 21.7 32.1998H27.4C28.5 32.1998 29.1 30.9998 28.6 30.0998C28.2 29.4998 27.8 28.9998 27.2 28.5998C27 28.4998 26.7 28.4998 26.5 28.5998C25.9 28.7998 25.2 28.9998 24.5 28.9998C23.8 28.9998 23.2 28.8998 22.6 28.5998Z"
      fill="currentColor"/>
</svg>
