<svg width="24" height="24" viewBox="0 0 24 24" fill="none" xmlns="http://www.w3.org/2000/svg">
<g id="Teams" clip-path="url(#clip0_4303_984)">
<path id="Vector" d="M0.801988 18.3219L2.474 16.6499L7.381 21.5569C7.68196 21.8578 7.68196 22.3463 7.381 22.6473L6.25421 23.7741C5.95324 24.0751 5.46473 24.0751 5.16376 23.7741L0.801988 19.4123C0.501025 19.1114 0.501025 18.6228 0.801988 18.3219ZM18.3218 0.802078L16.6498 2.47409L21.5568 7.38109C21.8577 7.68205 22.3463 7.68205 22.6472 7.38109L23.774 6.2543C24.075 5.95333 24.075 5.46482 23.774 5.16385L19.4122 0.802078C19.1113 0.501115 18.6227 0.501115 18.3218 0.802078ZM5.20011 5.2002C5.50144 4.89888 5.50144 4.41108 5.20011 4.10976L4.10967 3.01931C3.80834 2.71799 3.32055 2.71799 3.01922 3.01931C2.7179 3.32064 2.7179 3.80843 3.01922 4.10976L4.10967 5.2002C4.41099 5.50153 4.89879 5.50153 5.20011 5.2002ZM17.195 17.1951C16.8937 17.4964 16.8937 17.9842 17.195 18.2855L18.2854 19.376C18.5868 19.6773 19.0746 19.6773 19.3759 19.376C19.6772 19.0746 19.6772 18.5869 19.3759 18.2855L18.2854 17.1951C17.9841 16.8938 17.4963 16.8938 17.195 17.1951ZM2.06072 9.54707C2.46928 9.6583 2.8931 9.41477 3.00468 9.00222C3.11482 8.59039 2.87092 8.16766 2.4591 8.05826L0.969916 7.65952C0.557728 7.54756 0.13609 7.79473 0.0259551 8.20437C-0.0841797 8.6162 0.159716 9.03893 0.571541 9.14833L2.06072 9.54707ZM20.3344 12.8482C19.9218 12.7359 19.5002 12.9831 19.3904 13.3931C19.2803 13.8049 19.5242 14.2276 19.936 14.337L21.4252 14.7358C21.8337 14.847 22.2576 14.6035 22.3692 14.1909C22.4793 13.7791 22.2354 13.3564 21.8236 13.2469L20.3344 12.8482ZM9.00249 3.00514C9.4154 2.89319 9.65857 2.469 9.54735 2.06118L9.14861 0.571994C9.03884 0.159806 8.61611 -0.0840894 8.20465 0.0264089C7.79573 0.139452 7.54856 0.558909 7.65979 0.97037L8.05853 2.45955C8.1683 2.87174 8.59103 3.11564 9.00249 3.00514ZM13.393 19.3905C12.9844 19.5017 12.7365 19.9226 12.8481 20.3345L13.2469 21.8237C13.3566 22.2358 13.7794 22.4797 14.1908 22.3692C14.6037 22.2573 14.8469 21.8331 14.7357 21.4253L14.3369 19.9361C14.2272 19.5239 13.8044 19.28 13.393 19.3905ZM9.01666 10.1072L7.381 11.7429C7.07967 12.0442 6.59188 12.0442 6.29056 11.7429C5.98923 11.4415 5.98923 10.9537 6.29056 10.6524L7.60672 9.33625L4.65525 9.33626C4.22925 9.33626 3.88431 9.6812 3.88431 10.1072L3.88395 15.2399L3.56445 15.5594L7.92622 19.9212L8.25408 19.5933C9.72691 19.5112 11.1463 18.882 12.1899 17.8384L13.9237 16.1046C14.1159 15.9124 14.2562 15.6899 14.3664 15.4569L9.01666 10.1072ZM10.1071 3.88367C9.68111 3.88367 9.33616 4.22862 9.33616 4.65462V7.60681L10.6523 6.29065C10.9537 5.98932 11.4414 5.98932 11.7428 6.29065C12.0441 6.59197 12.0441 7.07976 11.7428 7.38109L10.1071 9.01676L15.4568 14.3665C15.6895 14.256 15.9123 14.116 16.1045 13.9238L17.8384 12.1899C18.8819 11.1464 19.5115 9.72663 19.5932 8.25417L19.9211 7.92631L15.5593 3.56454L15.2398 3.88404L10.1071 3.88367Z" fill="currentColor"/>
</g>
<defs>
<clipPath id="clip0_4303_984">
<rect width="24.0005" height="24.0005" fill="white"/>
</clipPath>
</defs>
</svg>
