<svg xmlns="http://www.w3.org/2000/svg" width="24" height="24" viewBox="0 0 24 24" fill="none">
  <path d="M12 0C5.38311 0 0.000244141 5.3839 0.000244141 11.9997C0.000244141 15.0387 1.1442 17.8096 3.01316 19.9256L8.28607 17.3496C8.60204 17.1766 8.94605 16.6226 8.99405 16.1976C7.73806 15.0787 7.00008 13.4287 7.00008 11.7047V7.68682C6.96206 7.29481 6.89606 5.76386 7.99006 4.5149C8.87007 3.50992 10.2191 2.99994 12 2.99994C13.7809 2.99994 15.1299 3.50992 16.0099 4.5149C17.1029 5.76386 17.0379 7.29486 16.9999 7.68682V11.7047C16.9999 13.4297 16.2609 15.0806 15.0059 16.1986C15.0539 16.6226 15.3999 17.1776 15.7529 17.3706L21.1408 19.7556C22.9198 17.6616 23.9997 14.9566 23.9997 11.9997C23.9997 5.3839 18.6169 0 12 0Z" fill="currentColor"/>
  <path d="M13 16.1022V15.2162L13.414 14.9162C14.432 14.1312 15 12.9492 15 11.7042L15.009 7.49932C15.009 7.49932 15.113 6.51333 14.493 5.81837C14.0091 5.27538 13.1701 5.00037 12.0001 5.00037C10.8301 5.00037 9.99111 5.27538 9.50714 5.81837C8.88714 6.51337 8.99115 7.49932 8.99213 7.50935L9.00015 7.63235V11.7042C9.00015 12.9492 9.56812 14.1312 10.5191 14.8672L10.9321 15.1662L11.0001 16.1022C11.0001 17.2671 10.2271 18.5681 9.20414 19.1261L4.55823 21.3961C6.6062 23.021 9.18914 24 12.0001 24C14.889 24 17.543 22.973 19.6159 21.265L14.869 19.1621C13.772 18.5681 13 17.2671 13 16.1022Z" fill="currentColor"/>
</svg>