<svg width="14" height="14" viewBox="0 0 14 14" fill="none" xmlns="http://www.w3.org/2000/svg">
<g id="Union">
<path d="M11 12.5C11 11.6716 11.6716 11 12.5 11C13.3284 11 14 11.6716 14 12.5C14 13.3284 13.3284 14 12.5 14C11.6716 14 11 13.3284 11 12.5Z" fill="#2D3842"/>
<path d="M-1.31134e-07 12.5C-2.03558e-07 11.6716 0.671572 11 1.5 11C2.32843 11 3 11.6716 3 12.5C3 13.3284 2.32843 14 1.5 14C0.671573 14 -5.87108e-08 13.3284 -1.31134e-07 12.5Z" fill="#2D3842"/>
<path d="M12.5 1.31134e-07C11.6716 2.03558e-07 11 0.671573 11 1.5C11 2.32843 11.6716 3 12.5 3C13.3284 3 14 2.32843 14 1.5C14 0.671573 13.3284 5.87108e-08 12.5 1.31134e-07Z" fill="#2D3842"/>
</g>
</svg>
