<svg width="232" height="80" viewBox="0 0 232 80" fill="none" xmlns="http://www.w3.org/2000/svg">
<g filter="url(#filter0_d_1338_2680)">
<path d="M216 12H28L16 24V60H204L216 48V12Z" fill="white"/>
</g>
<g clip-path="url(#clip0_1338_2680)">
<path fill-rule="evenodd" clip-rule="evenodd" d="M65.1519 24.7527L70.6643 27.9364L70.6679 27.9329C72.4064 28.9364 73.4876 30.8092 73.4876 32.8163V39.1837C73.4876 41.1943 72.4064 43.0636 70.6679 44.0671L65.1555 47.2474C64.2862 47.7491 63.311 48 62.3357 48C61.3604 48 60.3852 47.7491 59.5159 47.2474L52.0212 42.8975L57.9611 39.4558L62.3322 41.9788L67.5124 38.9894V33.0071L62.3322 30.0177L45.9717 39.4382L40 35.9894L59.5159 24.7527C61.2544 23.7491 63.4134 23.7491 65.1519 24.7527ZM84.8622 24.7527L79.3498 27.9364L79.3463 27.9329C77.6078 28.9364 76.5265 30.8092 76.5265 32.8163V39.1837C76.5265 41.1943 77.6078 43.0636 79.3463 44.0671L84.8587 47.2474C85.7279 47.7491 86.7032 48 87.6785 48C88.6537 48 89.629 47.7491 90.4983 47.2474L97.993 42.8975L92.053 39.4558L87.682 41.9788L82.5018 38.9894V33.0071L87.682 30.0177L104.042 39.4382L110.014 35.9894L90.4983 24.7527C88.7597 23.7491 86.6007 23.7491 84.8622 24.7527Z" fill="url(#paint0_linear_1338_2680)"/>
<path d="M119.004 43.1525C117.696 42.4542 116.669 41.4817 115.921 40.2352C115.174 38.9887 114.8 37.577 114.8 36C114.8 34.4231 115.174 33.0114 115.921 31.7649C116.669 30.5184 117.696 29.5459 119.004 28.8476C120.312 28.1492 121.788 27.8 123.433 27.8C124.868 27.8 126.161 28.0554 127.312 28.566C128.463 29.0766 129.419 29.8125 130.182 30.7737L127.357 33.3418C126.34 32.1103 125.107 31.4946 123.657 31.4946C122.805 31.4946 122.046 31.6823 121.381 32.0577C120.716 32.4332 120.2 32.9626 119.834 33.6459C119.468 34.3293 119.285 35.114 119.285 36C119.285 36.8861 119.468 37.6708 119.834 38.3542C120.2 39.0375 120.716 39.5669 121.381 39.9424C122.046 40.3178 122.805 40.5055 123.657 40.5055C125.107 40.5055 126.34 39.8898 127.357 38.6583L130.182 41.2264C129.419 42.1876 128.463 42.9235 127.312 43.4341C126.161 43.9447 124.868 44.2001 123.433 44.2001C121.788 44.2001 120.312 43.8509 119.004 43.1525ZM134.151 43.2764C133.104 42.7358 132.286 41.9848 131.695 41.0237C131.105 40.0625 130.81 38.9737 130.81 37.7572C130.81 36.5407 131.105 35.4744 131.695 34.5132C132.286 33.5521 133.1 32.8049 134.139 32.2718C135.178 31.7386 136.355 31.472 137.671 31.472C138.986 31.472 140.167 31.7386 141.214 32.2718C142.26 32.8049 143.075 33.5483 143.658 34.502C144.241 35.4556 144.532 36.5407 144.532 37.7572C144.532 38.9737 144.241 40.0625 143.658 41.0237C143.075 41.9848 142.26 42.7358 141.214 43.2764C140.167 43.8171 138.986 44.0874 137.671 44.0874C136.355 44.0874 135.197 43.8171 134.151 43.2764ZM139.509 39.9086C139.988 39.3904 140.227 38.6733 140.227 37.7572C140.227 36.8411 139.988 36.1502 139.509 35.6396C139.031 35.129 138.418 34.8737 137.671 34.8737C136.923 34.8737 136.311 35.129 135.832 35.6396C135.354 36.1502 135.115 36.8561 135.115 37.7572C135.115 38.6583 135.354 39.3904 135.832 39.9086C136.311 40.4267 136.923 40.6858 137.671 40.6858C138.418 40.6858 139.031 40.4267 139.509 39.9086ZM146.707 28.1154H154.129C155.848 28.1154 157.373 28.4383 158.703 29.0841C160.033 29.7299 161.065 30.646 161.797 31.8325C162.53 33.0189 162.896 34.4081 162.896 36C162.896 37.592 162.53 38.9812 161.797 40.1676C161.065 41.3541 160.033 42.2702 158.703 42.916C157.373 43.5618 155.848 43.8847 154.129 43.8847H146.707V28.1154ZM153.949 40.3253C155.295 40.3253 156.375 39.9424 157.189 39.1764C158.004 38.4105 158.411 37.3517 158.411 36C158.411 34.6484 158.004 33.5896 157.189 32.8237C156.375 32.0577 155.295 31.6748 153.949 31.6748H151.147V40.3253H153.949ZM177.381 38.861H168.546C168.726 39.4918 169.073 39.9761 169.589 40.3141C170.105 40.652 170.751 40.8209 171.528 40.8209C172.111 40.8209 172.616 40.7383 173.042 40.5731C173.468 40.4079 173.898 40.1376 174.331 39.7621L176.574 42.105C175.393 43.4266 173.666 44.0874 171.394 44.0874C169.974 44.0874 168.726 43.8171 167.649 43.2764C166.573 42.7358 165.74 41.9848 165.149 41.0237C164.559 40.0625 164.264 38.9737 164.264 37.7572C164.264 36.5407 164.551 35.4782 165.127 34.5245C165.702 33.5708 166.498 32.8237 167.515 32.283C168.531 31.7424 169.675 31.472 170.946 31.472C172.216 31.472 173.255 31.7236 174.242 32.2267C175.228 32.7298 176.009 33.4582 176.585 34.4119C177.16 35.3655 177.448 36.4957 177.448 37.8022C177.448 37.8323 177.426 38.1852 177.381 38.861ZM169.32 35.0764C168.879 35.4519 168.599 35.9625 168.479 36.6083H173.457C173.337 35.9625 173.057 35.4519 172.616 35.0764C172.175 34.701 171.626 34.5132 170.968 34.5132C170.31 34.5132 169.761 34.701 169.32 35.0764ZM192 31.6748L186.977 43.8847H182.583L177.583 31.6748H181.955L184.87 39.1314L187.942 31.6748H192Z" fill="#171236"/>
</g>
<path d="M4 63V72H13V70H6L6 63H4Z" fill="#2D3842"/>
<path d="M228 9L228 0L219 7.86805e-07L219 2L226 2L226 9L228 9Z" fill="#E4EAED"/>
<defs>
<filter id="filter0_d_1338_2680" x="0" y="0" width="232" height="80" filterUnits="userSpaceOnUse" color-interpolation-filters="sRGB">
<feFlood flood-opacity="0" result="BackgroundImageFix"/>
<feColorMatrix in="SourceAlpha" type="matrix" values="0 0 0 0 0 0 0 0 0 0 0 0 0 0 0 0 0 0 127 0" result="hardAlpha"/>
<feOffset dy="4"/>
<feGaussianBlur stdDeviation="8"/>
<feComposite in2="hardAlpha" operator="out"/>
<feColorMatrix type="matrix" values="0 0 0 0 0.0980392 0 0 0 0 0.12549 0 0 0 0 0.152941 0 0 0 0.08 0"/>
<feBlend mode="normal" in2="BackgroundImageFix" result="effect1_dropShadow_1338_2680"/>
<feBlend mode="normal" in="SourceGraphic" in2="effect1_dropShadow_1338_2680" result="shape"/>
</filter>
<linearGradient id="paint0_linear_1338_2680" x1="40.0003" y1="36" x2="110.013" y2="36" gradientUnits="userSpaceOnUse">
<stop stop-color="#B85DDE"/>
<stop offset="0.52" stop-color="#208BF1"/>
<stop offset="1" stop-color="#2EE5E2"/>
</linearGradient>
<clipPath id="clip0_1338_2680">
<rect width="152" height="24" fill="white" transform="translate(40 24)"/>
</clipPath>
</defs>
</svg>
