<svg xmlns="http://www.w3.org/2000/svg" width="24" height="22" viewBox="0 0 24 22" fill="none">
    <path d="M19.5245 11.05L14.7608 10.3604L12.6302 6.04343C12.4586 5.69512 12.0372 5.55121 11.6889 5.72278C11.5497 5.79122 11.4367 5.9042 11.3682 6.04343L9.23764 10.3604L4.47393 11.05C4.08953 11.1053 3.82279 11.462 3.87811 11.846C3.90014 11.9997 3.9728 12.1418 4.0839 12.25L7.53129 15.6107L6.7175 20.3552C6.65234 20.7382 6.91016 21.101 7.29269 21.1662C7.44504 21.192 7.60114 21.1671 7.73802 21.0954L11.9992 18.8565L16.2599 21.0954C16.6035 21.2768 17.0287 21.1451 17.2101 20.8015C17.2828 20.6641 17.3076 20.5066 17.2809 20.3538L16.4671 15.6107L19.9145 12.2505C20.193 11.9796 20.1991 11.5347 19.9286 11.2562C19.8203 11.1451 19.6783 11.0725 19.5245 11.0504V11.05Z" fill="#30363D"/>
    <path d="M23.9652 3.45297C23.8827 3.19842 23.6624 3.01279 23.3976 2.97435L20.9421 2.61761L19.8442 0.392791C19.6727 0.0444896 19.2512 -0.0994251 18.9029 0.0721475C18.7637 0.140589 18.6507 0.253564 18.5823 0.392791L17.4839 2.61761L15.0289 2.97435C14.6445 3.0306 14.3787 3.38781 14.435 3.77221C14.4575 3.92456 14.5288 4.06519 14.6389 4.17254L16.4156 5.90702L15.996 8.35216C15.9299 8.73469 16.1868 9.09846 16.5693 9.16456C16.7217 9.19081 16.8783 9.16643 17.0152 9.09471L19.2114 7.94011L21.4095 9.09471C21.7531 9.27566 22.1783 9.14393 22.3592 8.79985C22.4314 8.66249 22.4563 8.50545 22.43 8.3531L22.0104 5.90702L23.7876 4.17254C23.9788 3.98597 24.0473 3.70705 23.9652 3.45297Z" fill="#30363D"/>
    <path d="M6.98337 9.09471C7.32698 9.27612 7.75216 9.1444 7.93358 8.80078C8.00624 8.66343 8.03109 8.50592 8.00437 8.3531L7.58247 5.90796L9.3596 4.17254C9.63806 3.90159 9.64415 3.45672 9.37366 3.17827C9.26538 3.06717 9.12334 2.99451 8.96958 2.97247L6.51459 2.61761L5.41625 0.392791C5.24467 0.0444896 4.82324 -0.0994251 4.47494 0.0721475C4.33571 0.140589 4.22274 0.253564 4.1543 0.392791L3.05642 2.61761L0.600964 2.97435C0.216566 3.0306 -0.0492307 3.38781 0.00702262 3.77221C0.0295239 3.92456 0.100778 4.06519 0.210941 4.17254L1.98761 5.90702L1.56852 8.35216C1.50195 8.73469 1.75838 9.09893 2.1409 9.16549C2.29419 9.19221 2.4517 9.16737 2.58905 9.09471L4.78527 7.94011L6.98337 9.09471Z" fill="#30363D"/>
</svg>